<?xml version="1.0" encoding="UTF-8"?>
<svg width="195px" height="151px" viewBox="0 0 195 151" version="1.1" xmlns="http://www.w3.org/2000/svg" xmlns:xlink="http://www.w3.org/1999/xlink">
    <!-- Generator: Sketch 47.1 (45422) - http://www.bohemiancoding.com/sketch -->
    <title>image2vector copy</title>
    <desc>Created with Sketch.</desc>
    <defs></defs>
    <g id="Page-1" stroke="none" stroke-width="1" fill="none" fill-rule="evenodd">
        <g id="Desktop-Copy" transform="translate(-465.000000, -11.000000)" fill="#FFFFFF">
            <g id="image2vector-copy" transform="translate(465.000000, 11.000000)">
                <path d="M94.912921,2.03275465 C94.5059612,3.06667886 93.9524757,4.25045443 93.6825072,4.66392388 C92.4811978,6.50373764 91.2277011,12.3088487 91.1117853,16.5668323 C91.0947241,17.1867859 90.9115671,17.6944763 90.7048254,17.6944763 C90.3114142,17.6944763 89.7950619,21.8321778 89.3911128,28.2191532 C89.260143,30.2865004 88.9440089,32.7673171 88.6885927,33.7320792 C87.7070717,37.4387702 87.5158858,38.7723971 87.6478593,40.999118 C87.6804763,41.5504106 87.0281362,44.5950493 86.1981588,47.7649817 C85.3681814,50.9349142 84.6832243,54.2481827 84.6761991,55.127745 C84.6691739,56.0073073 84.4478801,56.8603073 84.1839332,57.0231892 C83.9199864,57.1860711 83.8311678,57.6506604 83.9867258,58.0551087 C84.141782,58.459557 84.0193428,58.7908337 83.7137465,58.7908337 C83.4081503,58.7908337 83.1582538,59.4819542 83.1582538,60.3269354 C83.1582538,61.1714154 82.6840527,62.9641187 82.1039718,64.3097738 C81.5243927,65.6559301 81.1530606,67.0512016 81.2795143,67.410043 C81.4054661,67.7688843 81.3201601,68.572268 81.089332,69.1952286 C79.9211414,72.3521305 84.1357604,75.401781 86.277945,72.9490301 C88.2219186,70.7228103 88.6429289,68.4073814 86.8374521,69.8703115 C86.2122092,70.3775007 86.0832466,70.3910324 86.3672654,69.9194266 C86.5820359,69.56259 86.8269143,68.5477104 86.9112167,67.6641387 C86.996021,66.780567 87.45015,64.7046998 87.9213403,63.050822 C88.3925306,61.3969442 88.8852983,59.4799495 89.0167699,58.7908337 C89.1482416,58.101718 89.4422964,57.0868384 89.6701137,56.5355458 C90.3214502,54.961856 92.79683,41.8330734 93.6860198,35.2356044 C93.9645189,33.1682572 94.5255314,28.2066238 94.9324912,24.2097524 C95.7283462,16.3939269 96.0530109,14.5085062 97.8645092,7.16979933 C98.5108277,4.55115948 98.8535572,2.3334597 98.6262417,2.24174466 C98.3984245,2.14952844 98.2122567,1.64233925 98.2122567,1.11410071 C98.2122567,-0.788861116 95.7534362,-0.103754766 94.912921,2.03275465 M77.8893528,12.5418951 C77.3373727,12.6727018 76.6709822,12.9834304 76.4090426,13.2325144 C76.1471029,13.4815984 75.4174856,13.6850755 74.7882283,13.6850755 C73.7580327,13.6850755 71.0643697,14.5370732 68.355151,15.7198464 C67.8031709,15.9609116 65.2344563,16.7537706 62.647175,17.4814768 C60.0598937,18.2091831 57.2372681,19.2170462 56.3746738,19.7217295 C55.5120794,20.2264128 53.6774983,21.0032342 52.297548,21.4472753 C50.9175978,21.8918176 49.3369275,22.4696725 48.7849474,22.7312859 C47.6057171,23.2900961 42.4140934,25.0888136 40.2543457,25.6867154 C38.9070125,26.0600909 36.6368689,26.9346414 33.7309445,28.2001085 C31.6730623,29.0962096 23.0727105,31.6662354 19.6805419,32.3984523 C17.7486115,32.8154299 14.5872709,33.6453759 12.6553405,34.2432778 C10.7234102,34.8406785 8.01368967,35.537813 6.63373941,35.79241 C-0.358844907,37.0819335 -0.750750781,37.3686056 0.648769683,40.1701744 C1.68398328,42.2425334 11.9357592,41.4516791 15.920052,38.9924129 C16.1574034,38.8460698 17.3265976,38.5228119 18.517871,38.2747302 C23.4601002,37.2448154 29.095817,35.6941797 30.4632223,34.988024 C31.2671061,34.573051 32.3314241,34.2317507 32.8277043,34.2302472 C33.3244864,34.2282425 34.3852918,33.8859399 35.185663,33.4694634 C35.9855323,33.0529869 36.6760093,32.7723289 36.7191641,32.8460016 C37.4181716,34.0297772 34.6206361,61.204493 32.9135122,69.8166858 C32.3394529,72.7109719 31.7749277,75.7556106 31.6580083,76.5825495 C31.5410889,77.4094884 31.2124098,79.7053715 30.9268856,81.6840107 C29.736114,89.9388657 33.6461403,93.7848833 35.0110366,85.7014303 C35.346239,83.7182804 35.9288289,81.2214261 36.3061826,80.153422 C36.6840381,79.0849167 36.9926451,77.4465753 36.9926451,76.5128861 C36.9926451,75.5786958 37.2079174,74.422986 37.4713624,73.9443638 C37.7343057,73.4657416 38.1844204,71.0445647 38.4709482,68.563748 C38.7574761,66.0829313 39.312467,61.6851199 39.7043728,58.7908337 C41.7657676,43.5706474 42.2755965,33.2579675 40.9884793,32.8134252 C39.4053,32.266142 41.1626039,31.1800956 46.4013969,29.4690838 C51.5809775,27.7776179 53.6614407,26.9947824 57.8173491,25.1735121 C58.3693292,24.9314446 59.9499995,24.3791496 61.3299497,23.945132 C62.7099,23.5116155 64.2905703,22.9613253 64.8425504,22.7222648 C66.7664519,21.8893118 69.2654164,21.2027019 70.3748964,21.2027019 C70.9890997,21.2027019 72.7057579,20.673461 74.1890789,20.026444 C75.6724,19.3794269 77.8366638,18.4377189 78.998331,17.9340379 C81.5740709,16.8174198 81.9383778,16.0200503 80.7787178,14.0374016 C79.811749,12.3835238 79.4178359,12.1795455 77.8893528,12.5418951 M147.639566,40.3084987 C141.600904,41.6977561 136.603476,46.7891938 133.379913,54.8365623 C133.073815,55.6003531 132.88865,55.7386774 132.868077,55.2184577 C132.785781,53.1019953 128.320262,53.3275241 128.320262,55.4479959 C128.320262,56.1661798 126.497223,58.2761269 121.10237,63.8025847 C113.755515,71.3282298 110.711595,73.0477616 105.280111,72.7410424 C100.344907,72.4623891 99.7176569,71.792318 99.7176569,66.7961035 L99.7176569,62.9290365 L103.606608,62.6699289 C109.269924,62.2925441 118.28426,56.2393514 118.28426,52.8133184 C118.28426,52.5176251 118.455876,52.2755576 118.665127,52.2755576 C120.101279,52.2755576 121.438074,47.0322637 120.652757,44.4772731 C118.935597,38.8886697 109.669356,39.4544964 103.732058,45.5111973 C102.766093,46.4965076 100.690647,48.5598454 99.120013,50.0959471 C96.7996894,52.3652679 96.1654141,53.3490746 95.736375,55.3457562 C95.4463345,56.6969242 94.8687626,58.6164248 94.4527704,59.6107562 C92.5745326,64.0997815 93.9675297,71.6123961 97.3998423,75.5030183 C102.869965,81.7040577 116.958003,77.8705695 124.191451,68.2124243 C124.542711,67.7438256 125.112254,67.0672392 125.456991,66.708899 C125.801728,66.35106 126.587045,65.4073473 127.20175,64.6119824 L128.320262,63.1660923 L128.361912,66.8672703 C128.476824,77.1027692 128.493885,77.2345783 129.918496,78.6569132 C132.216238,80.9522951 134.076913,79.7214091 134.820581,75.4143103 C136.062536,68.2239513 137.066136,63.8792644 138.14049,61.0461217 C138.349239,60.4948291 138.54193,59.9310071 138.568024,59.7931839 C139.535494,54.7107673 145.600752,46.786688 149.119876,46.0063583 C152.087522,45.3488166 157.658005,45.1749089 159.412298,45.6851051 C167.521889,48.0431339 170.210534,47.2803454 166.467106,43.6834118 C163.356447,40.6944035 153.580377,38.9417942 147.639566,40.3084987 M115.77526,46.0013466 C115.77526,47.5675187 110.029649,54.5198196 107.097129,56.5014659 C104.533934,58.2340282 100.806563,58.3397762 102.232679,56.6397903 C102.512182,56.30701 103.410906,55.1322556 104.230847,54.0296704 C105.050287,52.9270852 105.960552,51.7994412 106.253101,51.5237949 C106.546153,51.2481486 107.396704,50.3710922 108.143884,49.5752262 C109.963913,47.6361797 115.77526,44.9142978 115.77526,46.0013466 M71.7001505,48.4495869 C70.3302362,49.208366 68.7505695,52.4845476 68.0425296,56.0343707 C67.7675431,57.4126022 67.3465328,58.9913038 67.1061706,59.5425964 C66.4608557,61.0240699 64.4275617,67.9628391 64.4260563,68.6890418 C64.4250527,69.0338503 64.2363759,69.3155107 64.0060496,69.3155107 C63.7762252,69.3155107 63.5880501,69.8793326 63.5880501,70.5684484 C63.5880501,71.2575641 63.4114165,71.8213861 63.1956425,71.8213861 C62.9798684,71.8213861 62.5116889,72.8923973 62.1544073,74.2019678 C61.1924565,77.731744 60.4517995,79.2818785 60.2144481,78.2629896 C60.1085683,77.8089249 59.58218,77.3222839 59.0447521,77.1819549 C58.4445992,77.0250871 58.0536969,76.4742957 58.0296105,75.7526035 C57.9618675,73.6792422 56.73045,68.5396916 56.0670703,67.5613978 C55.8804007,67.2857515 55.6852005,65.9325788 55.6340168,64.5543473 C55.5366676,61.940218 53.7713349,57.4998067 52.6538261,57.0582715 C50.5226811,56.2157961 49.1768532,59.2448984 50.2783044,62.4043062 C50.6907841,63.5865782 51.0315064,65.4033379 51.0355208,66.4407703 C51.0395352,67.4782028 51.2492876,68.7186111 51.5011913,69.1972333 C51.7535967,69.6758556 52.4350412,71.606382 53.0156239,73.4872921 C54.5902726,78.587751 55.9064943,80.8716059 57.6502496,81.5276441 C59.434149,82.1987176 59.3884851,84.1021806 57.4977024,87.9326618 C56.9050765,89.1324749 56.2497256,90.5653345 56.0409767,91.1166271 C55.8322279,91.6679197 55.299818,92.942408 54.8577321,93.9487676 C54.4156462,94.9551272 54.0538483,96.136898 54.0538483,96.5744239 C54.0538483,97.0124509 53.6022283,98.5570725 53.05075,100.006972 C52.4987699,101.457373 52.0471498,103.041587 52.0471498,103.527727 C52.046648,104.013867 51.8419135,104.803218 51.5920171,105.28184 C50.7650505,106.864551 49.4975035,112.128894 49.3911219,114.421269 C49.3339167,115.661677 49.0689662,116.832422 48.8030122,117.022869 C48.0819254,117.539079 48.1923214,123.078066 48.9284622,123.323141 C49.2636646,123.434903 49.5376475,123.923047 49.5376475,124.408686 C49.5376475,125.666636 51.1424042,126.950646 52.7135403,126.950646 C53.7191477,126.950646 54.0538483,126.70056 54.0538483,125.948296 C54.0538483,125.397003 53.7954213,124.945946 53.4792872,124.945946 C52.8053697,124.945946 53.1726874,118.903779 53.9680405,116.909102 C54.2385108,116.23001 54.7317803,114.321034 55.0644737,112.667156 C55.3966654,111.013278 55.7885713,109.321812 55.9355987,108.908343 C56.0826261,108.494873 56.9778375,106.014057 57.9252361,103.395417 C58.8726347,100.776777 59.8235458,97.9576671 60.0378145,97.1307282 C60.3986087,95.738965 61.7198484,92.3580378 63.3998751,88.5290601 C63.7827486,87.6570155 64.5695711,85.4017276 65.1486484,83.5173092 C65.7282275,81.6328909 66.3765533,79.8652463 66.5898183,79.5896 C66.8025815,79.3139537 67.5838843,76.9459014 68.3255448,74.3272616 C69.0672054,71.7086217 69.8675765,69.1150406 70.1044262,68.563748 C70.3412758,68.0124554 70.8646533,66.5465183 71.267097,65.3061099 C73.5578144,58.2440517 74.1258521,56.3330711 74.1258521,55.6870564 C74.1258521,55.2926316 74.595537,53.9985975 75.1700981,52.8113137 C75.9182821,51.2646874 76.0602915,50.4988919 75.6718982,50.1109823 C75.3733272,49.8127832 75.1294523,49.1632602 75.1294523,48.6670969 C75.1294523,47.5875658 73.4479202,47.4808155 71.7001505,48.4495869 M151.55062,84.5241359 C150.392465,85.096979 149.786291,87.0310137 150.035685,89.3554638 C150.26551,91.4954814 149.343703,105.596544 148.921689,106.392911 C148.701901,106.807884 148.152931,109.740761 147.701311,112.910693 C146.71126,119.857481 145.846156,124.096921 145.346865,124.443734 C144.87718,124.769999 143.885623,132.808347 143.569489,138.850012 C143.166544,146.558085 145.005139,151 148.598028,151 C150.379418,151 151.265095,149.575159 149.977978,148.780797 C148.566916,147.909754 149.229292,135.834442 151.161725,127.194183 C155.924811,105.898251 157.189347,87.6118756 154.116324,84.4690066 C153.411796,83.748818 153.104193,83.7553333 151.55062,84.5241359 M178.813419,85.3686159 C177.038552,85.898358 172.502781,88.9204438 172.501275,89.5739761 C172.500774,89.8315801 172.013024,90.5607899 171.416885,91.1942752 C169.87385,92.8346212 166.666846,101.974551 167.28406,102.972391 C167.425567,103.200927 167.322197,103.388366 167.054737,103.388366 C166.581038,103.388366 166.374296,104.863826 165.68683,113.13121 C165.303957,117.731496 165.212127,117.854785 161.20977,119.138796 C159.553829,119.66954 157.984199,120.289995 157.722259,120.517027 C157.459818,120.74406 156.843607,120.929495 156.351843,120.929495 C155.223796,120.929495 154.682856,122.921666 155.304084,124.792051 C155.883663,126.537644 157.389064,126.821309 159.859927,125.650564 C160.870553,125.17144 162.530508,124.704345 163.548158,124.613131 L165.398797,124.44624 L165.619087,128.326338 C165.845399,132.315691 167.484278,139.598267 168.605801,141.600962 C171.605562,146.956018 175.643046,146.565603 173.431111,141.134368 C172.339696,138.454585 170.780101,125.71722 171.293443,123.675433 C171.561906,122.605925 177.233752,119.927144 179.229411,119.927144 C180.44728,119.927144 185.963568,118.00163 187.356565,117.089992 C188.556871,116.30415 189.003975,114.915393 188.056075,114.915393 C187.780085,114.915393 187.554275,114.464336 187.554275,113.913043 C187.554275,112.663614 186.18436,112.61099 181.281773,113.670976 C179.349843,114.088956 176.358111,114.737476 174.632922,115.112355 C170.665189,115.974376 170.783112,116.929616 173.311181,104.390717 C174.02173,100.866453 174.277648,100.06307 175.703764,96.8730901 C177.037046,93.8910983 180.33036,90.858989 182.237201,90.858989 C183.790272,90.858989 186.550674,92.985475 186.550674,94.1817799 C186.550674,94.5280919 186.946093,95.1064479 187.428825,95.4662917 C187.911556,95.8266365 188.958813,97.0795743 189.75517,98.2513216 C190.551527,99.423069 191.37197,100.381316 191.57821,100.381316 C191.784449,100.381316 192.076497,100.851919 192.227037,101.427268 C192.404173,102.103855 192.824179,102.412077 193.414798,102.299814 C194.920198,102.014645 194.7812,99.7824115 193.07257,96.8204668 C192.214994,95.3334803 191.386522,93.7222023 191.231466,93.2395707 C191.076409,92.7569391 190.750239,92.3625143 190.506365,92.3625143 C190.262992,92.3625143 190.063275,92.0242211 190.063275,91.6107517 C190.063275,91.1972822 189.852519,90.858989 189.595096,90.858989 C189.337672,90.858989 188.984907,90.4114397 188.811284,89.8646577 C187.632054,86.1539573 183.063164,84.0996406 178.813419,85.3686159 M119.358638,92.2983639 C118.58988,92.513368 117.68112,93.5382711 116.849638,95.1290008 C116.132565,96.500717 115.376353,97.6985255 115.169611,97.7907417 C114.962869,97.8834591 114.793261,98.4537964 114.793261,99.0587147 C114.793261,99.663633 114.483148,100.603336 114.103788,101.14661 C113.724427,101.690385 112.801115,103.71413 112.051927,105.643654 C111.302739,107.573178 110.36638,109.871567 109.971966,110.751631 C109.577049,111.631193 109.295539,112.533308 109.346221,112.756331 C109.500775,113.436927 108.653235,116.106185 107.926628,117.227815 C107.548773,117.810682 107.281815,118.938326 107.332999,119.733691 C107.384183,120.529557 106.955645,121.969433 106.381084,122.934195 C105.806021,123.898957 105.094469,125.928716 104.799912,127.444771 C104.505355,128.960825 103.845488,132.005464 103.33315,134.210634 L102.402813,138.220035 L101.572836,136.279485 C101.116198,135.211982 100.742858,134.041237 100.742858,133.677885 C100.742858,133.314533 100.543644,132.893546 100.299769,132.743194 C100.055894,132.592841 99.7016231,131.230146 99.5119426,129.714593 C99.3222622,128.199039 98.9574535,126.829829 98.7005319,126.671458 C98.444112,126.513086 98.2338578,125.754808 98.2338578,124.986507 C98.2338578,116.608363 92.1761271,120.141647 90.3560981,129.580779 C90.2095725,130.342064 89.889424,131.088815 89.6455492,131.239167 C89.4011725,131.390021 89.2014561,131.925276 89.2014561,132.428456 C89.2014561,132.932137 88.870268,134.102882 88.4658172,135.030056 C87.6609298,136.873879 87.6609298,137.00669 88.4618028,128.447121 C90.2953803,108.838645 88.724746,97.6173351 84.3610924,99.1509309 L82.9289549,99.6546119 L83.179855,105.906771 C83.5090358,114.105996 83.4488198,121.631641 82.9881673,129.950646 C82.1270784,145.508625 82.3308092,147.556927 85.0199559,150.374533 C86.3221272,151.738732 91.2086565,147.546904 91.2086565,145.066087 C91.2086565,144.177503 93.6228167,136.144669 94.2811785,134.84412 C94.5230461,134.365498 94.7212571,133.40675 94.7212571,132.714126 C94.7212571,131.023161 95.6300171,131.106857 96.006869,132.832403 C96.3907461,134.58852 97.1168508,136.684435 98.2213128,139.222385 C98.7005319,140.324971 99.2454868,141.903672 99.4321564,142.730611 C101.558283,152.167738 106.709261,149.75057 108.509218,138.470623 C108.706928,137.230214 109.325647,134.523869 109.884151,132.456522 C110.442654,130.389174 110.987609,128.021122 111.094994,127.194183 C111.202881,126.367244 112.201463,123.097077 113.314456,119.927144 C114.427449,116.757212 115.984534,112.246636 116.774368,109.903643 C117.564703,107.560649 119.241719,103.37734 120.501237,100.607346 L122.790951,95.5705361 L121.949432,93.7161882 C121.486271,92.6957957 120.985474,91.8838921 120.835938,91.9114567 C120.686401,91.9390214 120.021516,92.1129291 119.358638,92.2983639 M124.327463,113.86894 C120.693928,114.388658 116.805479,118.8847 117.522552,121.737389 C117.701192,122.448055 117.628933,123.292535 117.362477,123.613788 C116.11701,125.112302 114.311031,135.71416 115.301083,135.71416 C115.337212,135.71416 115.474204,136.616275 115.606177,137.71886 C115.73815,138.821445 116.060808,139.798737 116.323249,139.890452 C116.585691,139.982668 116.800461,140.489857 116.800461,141.018096 C116.800461,141.546334 116.97007,141.980352 117.176811,141.981855 C117.383553,141.98386 117.920479,142.629875 118.369088,143.417722 C119.971838,146.232321 124.887973,147.383521 128.218922,145.723629 C130.026406,144.823518 133.359864,141.283719 133.359864,140.26483 C133.359864,139.875416 133.540011,139.481493 133.759799,139.389277 C136.06256,138.428023 138.040154,123.921009 136.332026,120.524044 C135.004765,117.883853 133.859156,116.530681 132.24085,115.692215 C131.338112,115.224618 130.035439,114.523475 129.345464,114.134563 C128.008166,113.379793 127.815977,113.369769 124.327463,113.86894 M129.246107,119.625437 C131.077678,120.571154 132.531392,122.24558 132.111386,122.924673 C131.922709,123.229888 132.032603,123.79772 132.356264,124.187133 C132.679925,124.576546 132.808888,125.114307 132.643294,125.381934 C132.477198,125.649562 132.220276,127.520448 132.071242,129.53868 C131.922709,131.556912 131.587506,133.283461 131.326069,133.375176 C131.064631,133.467392 130.850864,133.76509 130.850864,134.037729 C130.850864,134.309867 130.510142,134.873188 130.093648,135.289163 C129.677154,135.705139 129.46439,136.252923 129.621454,136.506518 C129.778015,136.759611 129.554212,136.967097 129.12417,136.967097 C128.694127,136.967097 128.334838,137.362023 128.325806,137.844154 C128.27412,140.707367 124.260222,142.366758 121.854592,140.519928 C119.386739,138.625486 120.154493,129.796284 123.108088,126.096109 L124.222085,124.701338 L127.23991,125.785881 C130.054507,126.797252 134.015215,126.171285 131.478114,125.116311 C131.133377,124.972975 130.850864,124.511894 130.850864,124.092411 C130.850864,122.770311 126.876607,119.975257 124.954713,119.944685 C124.333484,119.935163 123.825663,119.701616 123.825663,119.425969 C123.825663,118.678717 127.68852,118.82055 129.246107,119.625437" id="path0"></path>
            </g>
        </g>
    </g>
</svg>