<?xml version="1.0" encoding="UTF-8"?>
<svg width="79px" height="61px" viewBox="0 0 79 61" version="1.1" xmlns="http://www.w3.org/2000/svg" xmlns:xlink="http://www.w3.org/1999/xlink">
    <!-- Generator: Sketch 46.2 (44496) - http://www.bohemiancoding.com/sketch -->
    <title>image2vector</title>
    <desc>Created with Sketch.</desc>
    <defs></defs>
    <g id="Page-1" stroke="none" stroke-width="1" fill="none" fill-rule="evenodd">
        <g id="Desktop-Copy-3" transform="translate(-30.000000, -30.000000)" fill="#000000">
            <g id="image2vector" transform="translate(30.000000, 30.000000)">
                <path d="M38.4519013,0.82117903 C38.2870304,1.23885702 38.0627978,1.71707099 37.953426,1.8841017 C37.4667417,2.62733772 36.9589148,4.97244882 36.9119541,6.69256139 C36.9050421,6.94300622 36.83084,7.14809968 36.7470831,7.14809968 C36.5877011,7.14809968 36.3785122,8.8196215 36.2148611,11.3997904 C36.1618015,12.2349439 36.0337267,13.2371281 35.9302504,13.6268664 C35.5326085,15.1242714 35.4551538,15.6630213 35.5086199,16.5625576 C35.521834,16.7852652 35.2575526,18.0152186 34.9213054,19.2957873 C34.5850581,20.5763561 34.3075627,21.9148288 34.3047166,22.2701486 C34.3018705,22.6254685 34.2122181,22.9700579 34.1052858,23.0358579 C33.9983535,23.1016579 33.9623705,23.2893396 34.0253915,23.452726 C34.0882091,23.6161124 34.0386055,23.7499395 33.9147999,23.7499395 C33.7909942,23.7499395 33.6897541,24.0291338 33.6897541,24.3704838 C33.6897541,24.7116314 33.4976419,25.435836 33.2626347,25.9794451 C33.0278309,26.5232565 32.8773938,27.0869093 32.9286237,27.2318717 C32.9796504,27.3768341 32.9450905,27.7013798 32.8515755,27.9530394 C32.3783086,29.2283441 34.0857696,30.4603221 34.953629,29.4694757 C35.7411875,28.5701419 35.9117507,27.63477 35.1803011,28.225755 C34.9269976,28.430646 34.8747512,28.4361124 34.9898152,28.2455962 C35.0768248,28.1014436 35.176032,27.6914592 35.2101852,27.3345196 C35.2445418,26.9775801 35.4285223,26.1389847 35.6194148,25.4708619 C35.8103073,24.8027391 36.0099414,24.028324 36.0632042,23.7499395 C36.1164671,23.471555 36.235597,23.0615705 36.3278922,22.8388629 C36.591767,22.2031339 37.5946132,16.8994535 37.9548491,14.2342508 C38.0676769,13.3990973 38.2949589,11.3947288 38.4598298,9.78009867 C38.7822531,6.62271219 38.9137839,5.86105217 39.647673,2.896409 C39.9095148,1.83854787 40.0483642,0.942655907 39.9562723,0.905605459 C39.8639771,0.86835255 39.7885553,0.663461552 39.7885553,0.450067173 C39.7885553,-0.318678994 38.7924177,-0.0419141771 38.4519013,0.82117903 M31.5551737,5.0665934 C31.331551,5.11943584 31.0615774,5.24496195 30.9554583,5.34558529 C30.8493391,5.44620864 30.5537506,5.52840799 30.2988207,5.52840799 C29.8814594,5.52840799 28.7901806,5.87259248 27.6925997,6.35040152 C27.4689769,6.44778549 26.4283182,6.76807952 25.3801375,7.06205356 C24.3319569,7.3560276 23.1884317,7.7631776 22.8389704,7.96705629 C22.4895091,8.17093498 21.7462685,8.48475024 21.1872118,8.6641311 C20.628155,8.84371441 19.9877809,9.07715248 19.7641582,9.18283736 C19.2864187,9.40858189 17.1831455,10.1352161 16.3081708,10.3767526 C15.7623281,10.5275864 14.8426289,10.8808816 13.665357,11.3920968 C12.8316509,11.7540979 9.3474058,12.7923203 7.9731426,13.0881165 C7.19046312,13.2565644 5.90971488,13.5918406 5.1270354,13.8333771 C4.34435592,14.0747112 3.24657171,14.3563351 2.68751494,14.4591855 C-0.145378193,14.9801188 -0.304150316,15.0959268 0.262834897,16.2276863 C0.682229123,17.0648645 4.83551271,16.7453803 6.44966208,15.7519019 C6.54581984,15.6927832 7.0194934,15.5621955 7.50211186,15.4619771 C9.50434828,15.0459188 11.7875361,14.419503 12.3415106,14.1342348 C12.6671866,13.9665968 13.0983718,13.8287205 13.2994289,13.8281131 C13.5006894,13.8273033 13.9304516,13.6890221 14.2547045,13.5207766 C14.5787541,13.3525311 14.8584858,13.2391527 14.875969,13.2689146 C15.1591567,13.7471285 14.0257962,24.7249939 13.3341921,28.2040916 C13.1016245,29.3733065 12.8729194,30.6032599 12.8255521,30.9373213 C12.7781847,31.2713827 12.6450276,32.1988587 12.5293536,32.9981765 C12.0469385,36.3329192 13.6310004,37.8866085 14.1839584,34.6211076 C14.3197584,33.8199676 14.555782,32.8113046 14.7086586,32.3798592 C14.8617385,31.9482114 14.9867639,31.2863649 14.9867639,30.9091792 C14.9867639,30.531791 15.0739768,30.0649149 15.1807058,29.8715642 C15.2872315,29.6782135 15.4695857,28.7001222 15.5856662,27.6979379 C15.7017467,26.6957537 15.9265892,24.9191544 16.0853613,23.7499395 C16.9204905,17.6013874 17.1270365,13.4353379 16.605589,13.2557546 C15.9641985,13.0346666 16.6761318,12.5959327 18.7985146,11.9047292 C20.8969088,11.2214218 21.7397631,10.905177 23.4234388,10.1694321 C23.6470616,10.0716432 24.2874357,9.84853064 24.8464924,9.67319902 C25.4055492,9.49806985 26.0459233,9.27576717 26.2695461,9.17919305 C27.0489728,8.8427021 28.0613738,8.5653299 28.5108555,8.5653299 C28.7596866,8.5653299 29.4551532,8.3515306 30.0560884,8.09015285 C30.6570236,7.82877511 31.5338279,7.44835002 32.0044521,7.24487626 C33.0479569,6.79379212 33.1955479,6.47167594 32.7257369,5.6707384 C32.3339906,5.00261558 32.1744053,4.92021376 31.5551737,5.0665934 M59.8129524,16.2835657 C57.3665199,16.8447889 55.3419212,18.9015949 54.0359646,22.1525185 C53.9119557,22.4610698 53.8369404,22.5169492 53.8286054,22.3067942 C53.7952653,21.4517994 51.9861576,21.5429071 51.9861576,22.3995215 C51.9861576,22.6896488 51.2475927,23.5420115 49.0619857,25.7745541 C46.0855675,28.8147154 44.8523899,29.5093606 42.6519424,29.3854542 C40.6525521,29.2728856 40.3984354,29.0021947 40.3984354,26.9838564 L40.3984354,25.4216637 L41.973959,25.3169912 C44.268328,25.1645377 47.9202901,22.7192082 47.9202901,21.3351816 C47.9202901,21.2157294 47.9898165,21.1179405 48.0745898,21.1179405 C48.6564154,21.1179405 49.197989,18.9997887 48.8798348,17.9676401 C48.1841649,15.7099924 44.4301495,15.9385714 42.0247824,18.3853181 C41.6334426,18.7833574 40.7926212,19.6168912 40.156313,20.2374356 C39.2162844,21.1541811 38.9593216,21.5516129 38.7855058,22.3582194 C38.6680022,22.9040555 38.4340115,23.6794829 38.2654813,24.0811664 C37.5045542,25.8946137 38.0688966,28.929511 39.4594233,30.5012193 C41.6755243,33.006275 47.3829857,31.4576473 50.3134597,27.5560125 C50.4557651,27.366711 50.686503,27.093388 50.8261656,26.9486281 C50.9658281,26.8040706 51.2839823,26.4228357 51.5330166,26.1015293 L51.9861576,25.517428 L52.0030309,27.0126059 C52.0495851,31.1474763 52.0564971,31.2007237 52.633647,31.7753093 C53.5645273,32.7025828 54.3183391,32.2053374 54.6196199,30.4653836 C55.122771,27.5606691 55.5293577,25.8055307 55.9646088,24.661016 C56.0491789,24.4383084 56.1272435,24.2105393 56.1378148,24.1548624 C56.5297644,22.1017007 58.9869714,18.9005826 60.4126678,18.5853501 C61.6149448,18.3197206 63.8717045,18.2494665 64.5824182,18.4555723 C67.8678423,19.4081534 68.9570882,19.1000071 67.4405197,17.6469412 C66.1803041,16.439461 62.2197426,15.7314533 59.8129524,16.2835657 M46.9038233,18.5833254 C46.9038233,19.2160175 44.5761142,22.0245629 43.3880677,22.8250955 C42.3496452,23.5250048 40.839582,23.5677241 41.4173418,22.8809749 C41.5305762,22.7465405 41.8946746,22.2719708 42.226856,21.8265556 C42.558834,21.3811404 42.9276082,20.9256021 43.0461283,20.8142483 C43.1648516,20.7028945 43.5094338,20.3485869 43.8121377,20.0270781 C44.5494827,19.2437547 46.9038233,18.1441865 46.9038233,18.5833254 M29.0477533,19.5723497 C28.4927624,19.8788763 27.8527948,21.2023669 27.5659479,22.6364014 C27.4545431,23.1931704 27.28398,23.830924 27.1866024,24.0536316 C26.9251672,24.6521077 26.1014224,27.4551867 26.1008126,27.7485533 C26.100406,27.8878468 26.0239677,28.0016301 25.930656,28.0016301 C25.8375476,28.0016301 25.7613126,28.2293993 25.7613126,28.5077838 C25.7613126,28.7861683 25.6897534,29.0139374 25.6023372,29.0139374 C25.5149211,29.0139374 25.3252483,29.4465976 25.1805035,29.9756294 C24.7907901,31.4015654 24.490729,32.0277787 24.3945713,31.6161746 C24.3516764,31.4327445 24.1384216,31.2361544 23.9206944,31.1794652 C23.6775556,31.1160948 23.51919,30.8935896 23.5094319,30.6020451 C23.4819873,29.7644621 22.9831054,27.6882198 22.7143516,27.293015 C22.6387264,27.1816612 22.5596453,26.6350153 22.5389094,26.0782463 C22.4994705,25.0222073 21.7842844,23.2283987 21.3315501,23.0500302 C20.4681631,22.7096925 19.9229303,23.9333695 20.3691592,25.2096866 C20.5362664,25.6872932 20.6743026,26.421216 20.6759289,26.8403112 C20.6775553,27.2594064 20.7625319,27.7604985 20.8645852,27.9538492 C20.9668417,28.1471999 21.2429141,28.9270815 21.4781246,29.6869193 C22.1160592,31.7473696 22.6492977,32.6699865 23.3557422,32.9350085 C24.0784501,33.2061044 24.0599504,33.9750531 23.293941,35.522466 C23.0538515,36.0071588 22.7883504,36.5859961 22.7037803,36.8087037 C22.6192103,37.0314113 22.403516,37.5462708 22.2244145,37.9528134 C22.0453131,38.359356 21.8987386,38.8367601 21.8987386,39.013509 C21.8987386,39.1904603 21.7157745,39.8144465 21.4923551,40.4001675 C21.2687324,40.986091 21.0857684,41.6260717 21.0857684,41.8224593 C21.0855651,42.0188469 21.0026214,42.3377237 20.9013813,42.5310744 C20.5663538,43.1704477 20.0528347,45.2971029 20.0097366,46.2231616 C19.9865611,46.7242537 19.8792222,47.1972037 19.7714767,47.274139 C19.4793441,47.4826743 19.5240687,49.7202784 19.8223001,49.8192821 C19.9581,49.864431 20.0690982,50.0616284 20.0690982,50.2578136 C20.0690982,50.7659919 20.7192304,51.2846981 21.355742,51.2846981 C21.7631419,51.2846981 21.8987386,51.1836699 21.8987386,50.8797752 C21.8987386,50.6570676 21.7940425,50.4748523 21.6659676,50.4748523 C21.3929447,50.4748523 21.5417554,48.0339769 21.8639754,47.2281803 C21.9735505,46.953845 22.1733879,46.1826693 22.3081714,45.5145465 C22.4427516,44.8464237 22.6015237,44.1631162 22.6610887,43.9960855 C22.7206537,43.8290548 23.083329,42.8268706 23.4671469,41.7690095 C23.8509648,40.7111483 24.2362057,39.5723026 24.323012,39.2382412 C24.46918,38.6760057 25.0044514,37.3102007 25.6850776,35.7633952 C25.8401904,35.4111122 26.1589545,34.5000356 26.393555,33.7387805 C26.6283589,32.9775255 26.8910139,32.2634439 26.9774136,32.1520901 C27.06361,32.0407363 27.3801377,31.0841059 27.6806053,30.0262447 C27.9810729,28.9683836 28.3053259,27.9206455 28.4012803,27.6979379 C28.4972348,27.4752303 28.7092698,26.8830306 28.8723111,26.3819384 C29.8003453,23.529054 30.0304734,22.7570685 30.0304734,22.4960956 C30.0304734,22.3367585 30.220756,21.814003 30.4535269,21.3343718 C30.7566373,20.7095757 30.8141694,20.4002146 30.6568203,20.2435094 C30.5358607,20.1230449 30.4370602,19.8606548 30.4370602,19.660218 C30.4370602,19.224116 29.7558241,19.1809917 29.0477533,19.5723497 M61.3974305,34.1455118 C60.9282294,34.3769253 60.682651,35.1582241 60.7836878,36.0972403 C60.8767962,36.9617508 60.5033463,42.6582064 60.3323765,42.9799177 C60.2433341,43.1475558 60.0209311,44.3323602 59.8379671,45.612929 C59.4368692,48.4192473 59.0863915,50.1318688 58.8841146,50.2719721 C58.693832,50.4037745 58.2921243,53.6510539 58.1640494,56.0917268 C58.0008049,59.2055841 58.7456718,61 60.2012523,61 C60.9229438,61 61.2817566,60.4244021 60.7603091,60.1035007 C60.1886481,59.7516226 60.4569954,54.8735162 61.2398782,51.3830806 C63.1695388,42.7800882 63.6818381,35.3928769 62.4368695,34.1232411 C62.1514456,33.832304 62.0268268,33.834936 61.3974305,34.1455118 M72.4423594,34.4866594 C71.7233107,34.7006612 69.885742,35.9215038 69.8851321,36.1855135 C69.8849288,36.2895787 69.6873276,36.5841601 69.4458151,36.8400714 C68.820688,37.5027278 67.52144,41.1950174 67.7714909,41.5981182 C67.8288196,41.6904406 67.7869412,41.7661612 67.6785858,41.7661612 C67.4866769,41.7661612 67.40292,42.3622078 67.1244081,45.702012 C66.9692953,47.5604058 66.9320926,47.6102113 65.3106246,48.1289176 C64.6397565,48.3433242 64.0038548,48.5939715 63.8977357,48.6856866 C63.7914133,48.7774016 63.541769,48.8523124 63.3425415,48.8523124 C62.885538,48.8523124 62.6663877,49.6570967 62.9180649,50.4126828 C63.1528688,51.1178561 63.7627489,51.2324493 64.7637655,50.7594993 C65.1731983,50.5659462 65.8456928,50.3772521 66.2579717,50.3404041 L67.0077177,50.2729844 L67.0969635,51.8404411 C67.1886488,53.4520343 67.852605,56.3940018 68.3069656,57.2030378 C69.5222534,59.3663385 71.1579519,59.208621 70.2618347,57.0145461 C69.8196716,55.9319847 69.1878358,50.7864267 69.3958049,49.9615987 C69.5045669,49.5295459 71.8023919,48.4473894 72.6108896,48.4473894 C73.1042826,48.4473894 75.3390867,47.6695325 75.9034291,47.3012551 C76.3897068,46.9837955 76.5708412,46.4227748 76.18682,46.4227748 C76.0750087,46.4227748 75.9835266,46.2405595 75.9835266,46.0178519 C75.9835266,45.5131155 75.4285357,45.491857 73.4423595,45.920063 C72.65968,46.0889159 71.4476449,46.350901 70.7487223,46.5023422 C69.1412816,46.8505759 69.1890556,47.2364674 70.2132476,42.1710842 C70.501111,40.7473752 70.6047906,40.4228294 71.1825504,39.1341622 C71.7227009,37.9295165 73.0569153,36.7046247 73.8294301,36.7046247 C74.4586231,36.7046247 75.5769399,37.5636687 75.5769399,38.0469442 C75.5769399,38.1868451 75.7371351,38.4204856 75.9327033,38.5658529 C76.1282715,38.7114227 76.5525448,39.2175764 76.8751714,39.6909313 C77.197798,40.1642862 77.5301826,40.5513925 77.6137362,40.5513925 C77.6972898,40.5513925 77.8156065,40.7415038 77.8765945,40.9739295 C77.9483571,41.2472525 78.1185136,41.3717663 78.3577899,41.3264149 C78.96767,41.2112144 78.9113578,40.309451 78.2191439,39.1129038 C77.8717155,38.5122006 77.5360781,37.861287 77.4732605,37.6663166 C77.4104428,37.4713463 77.2783021,37.3120091 77.1795015,37.3120091 C77.0809043,37.3120091 76.9999935,37.1753476 76.9999935,37.0083169 C76.9999935,36.8412862 76.9146103,36.7046247 76.8103208,36.7046247 C76.7060313,36.7046247 76.563116,36.5238266 76.4927765,36.3029412 C76.0150371,34.8039165 74.164051,33.974027 72.4423594,34.4866594 M48.3555509,37.286094 C48.0441054,37.37295 47.6759411,37.7869837 47.339084,38.4295964 C47.0485778,38.9837334 46.7422147,39.4676163 46.6584578,39.5048692 C46.5747009,39.5423245 46.5059878,39.7727257 46.5059878,40.0170967 C46.5059878,40.2614677 46.3803525,40.6410829 46.2266627,40.8605511 C46.0729729,41.0802218 45.6989131,41.8977612 45.3953961,42.6772378 C45.0918791,43.4567144 44.7125336,44.3852027 44.552745,44.740725 C44.3927532,45.0960449 44.2787056,45.4604755 44.2992382,45.5505709 C44.3618526,45.8255135 44.0184901,46.9038233 43.7241213,47.356932 C43.5710414,47.5923947 43.4628893,48.047933 43.4836252,48.3692393 C43.5043611,48.6907481 43.3307486,49.2724199 43.0979777,49.6621582 C42.8650035,50.0518965 42.5767335,50.8718654 42.4574003,51.4843113 C42.3380671,52.0967573 42.0707363,53.3267106 41.8631737,54.2175411 L41.4862678,55.8372328 L41.1500206,55.053302 C40.9650236,54.6220591 40.8137734,54.1491091 40.8137734,54.0023245 C40.8137734,53.85554 40.7330659,53.6854723 40.6342653,53.6247339 C40.5354647,53.5639955 40.3919396,53.0135028 40.3150947,52.4012593 C40.2382498,51.7890158 40.0904555,51.2358911 39.9863693,51.1719133 C39.8824864,51.1079355 39.7973065,50.8016113 39.7973065,50.4912379 C39.7973065,47.1066896 37.3431489,48.5340429 36.6058039,52.3472021 C36.5464422,52.654741 36.416741,52.9564086 36.3179404,53.0171471 C36.2189366,53.078088 36.1380258,53.2943168 36.1380258,53.4975881 C36.1380258,53.7010619 36.0038522,54.1740119 35.8399977,54.5485656 C35.5139152,55.2934213 35.5139152,55.3470736 35.8383714,51.8892343 C36.5812054,43.9679296 35.9448971,39.4348175 34.1770579,40.0543496 L33.5968587,40.2578233 L33.6985053,42.7835301 C33.8318658,46.0957996 33.8074706,49.1359609 33.6208473,52.4966186 C33.2719958,58.7816298 33.354533,59.6090898 34.4439821,60.7473281 C34.9715284,61.2984282 36.9511993,59.6050405 36.9511993,58.6028563 C36.9511993,58.2438921 37.9292437,54.9988398 38.1959646,54.4734524 C38.293952,54.2801017 38.3742529,53.8927929 38.3742529,53.6129911 C38.3742529,52.9298862 38.7424172,52.9636972 38.8950905,53.660772 C39.0506099,54.370197 39.3447754,55.2168908 39.7922242,56.2421557 C39.9863693,56.6875709 40.2071459,57.3253245 40.2827711,57.6593859 C41.1441251,61.4717352 43.2309315,60.4952636 43.9601449,55.9384635 C44.0402425,55.4373714 44.2909032,54.3440795 44.5171687,53.508926 C44.7434342,52.6737724 44.9642108,51.717142 45.0077156,51.3830806 C45.0514237,51.0490192 45.4559775,49.7279582 45.9068822,48.4473894 C46.3577869,47.1668207 46.9886062,45.3446675 47.30859,44.3981602 C47.628777,43.4516529 48.3081835,41.7617071 48.8184499,40.6427026 L49.7460775,38.6079649 L49.4051545,37.8588575 C49.2175147,37.446646 49.014628,37.1186584 48.9540465,37.1297938 C48.8934651,37.1409292 48.6241014,37.2111833 48.3555509,37.286094 M50.3685618,46.0000353 C48.8965145,46.2099878 47.3211942,48.0262696 47.6117004,49.1786802 C47.6840728,49.4657706 47.6547986,49.8069181 47.5468498,49.9366959 C47.0422757,50.5420557 46.3106228,54.8249254 46.7117206,54.8249254 C46.7263578,54.8249254 46.7818569,55.1893561 46.835323,55.6347713 C46.8887892,56.0801865 47.0195068,56.4749864 47.1258292,56.5120368 C47.2321517,56.5492897 47.3191612,56.7541807 47.3191612,56.9675751 C47.3191612,57.1809695 47.3878744,57.3563011 47.4716313,57.3569085 C47.5553881,57.3577183 47.772912,57.6186911 47.9546563,57.9369606 C48.6039754,59.0739841 50.5956405,59.5390381 51.9451019,58.8684857 C52.6773646,58.504865 54.0278425,57.0748797 54.0278425,56.6632755 C54.0278425,56.505963 54.1008248,56.3468282 54.1898673,56.3095753 C55.1227806,55.9212543 55.9239598,50.0608048 55.2319491,48.688521 C54.6942382,47.6219541 54.2301194,47.0753081 53.5744983,46.7365901 C53.2087735,46.5476935 52.6810239,46.26445 52.4014955,46.1073399 C51.8597187,45.8024329 51.7818573,45.7983837 50.3685618,46.0000353 M52.3612434,48.3255076 C53.1032643,48.7075524 53.6922052,49.3839762 53.5220486,49.6583114 C53.4456103,49.7816105 53.4901315,50.0109993 53.6212558,50.1683119 C53.75238,50.3256244 53.8046264,50.5428656 53.7375396,50.65098 C53.6702495,50.7590944 53.5661633,51.514883 53.5057851,52.3301953 C53.4456103,53.1455076 53.3098103,53.8429874 53.2038945,53.8800378 C53.0979786,53.9172907 53.0113756,54.0375528 53.0113756,54.1476919 C53.0113756,54.2576284 52.8733394,54.4851951 52.704606,54.6532381 C52.5358725,54.8212811 52.4496761,55.0425715 52.5133069,55.145017 C52.5767344,55.2472601 52.4860656,55.3310791 52.3118432,55.3310791 C52.1376207,55.3310791 51.9920627,55.4906187 51.9884034,55.6853867 C51.9674642,56.842049 50.3413205,57.5123989 49.3667321,56.7663284 C48.3669353,56.0010241 48.6779741,52.4342605 49.8745589,50.9394876 L50.3258702,50.3760373 L51.5484765,50.8141639 C52.6887491,51.2227311 54.2933437,50.9698568 53.2654924,50.5436754 C53.1258298,50.4857714 53.0113756,50.2995069 53.0113756,50.1300466 C53.0113756,49.5959533 51.4012921,48.4668257 50.6226785,48.4544756 C50.3710013,48.4506288 50.1652684,48.3562818 50.1652684,48.244928 C50.1652684,47.9430579 51.7302208,48.0003545 52.3612434,48.3255076" id="path0"></path>
            </g>
        </g>
    </g>
</svg>