<?xml version="1.0" encoding="UTF-8"?>
<svg width="306px" height="100px" viewBox="0 0 306 100" version="1.1" xmlns="http://www.w3.org/2000/svg" xmlns:xlink="http://www.w3.org/1999/xlink">
    <!-- Generator: Sketch 42 (36781) - http://www.bohemiancoding.com/sketch -->
    <title>UN-Environment-WCMC logo 2017</title>
    <desc>Created with Sketch.</desc>
    <defs></defs>
    <g id="Page-1" stroke="none" stroke-width="1" fill="none" fill-rule="evenodd">
        <g id="UN-Environment-WCMC-logo-2017">
            <g id="UN-Environment-WCMC-logo-2017-CMYK">
                <polyline id="Fill-1" fill="#00A3DB" points="231.535007 93.6540426 234.491059 78 239 78 234.128564 100 229.574195 100 226.000232 85.2827106 222.425805 100 217.871436 100 213 78 217.509405 78 220.48029 93.6233903 224.100144 78 227.93045 78 231.535007 93.6540426"></polyline>
                <path d="M258.96929,92.573401 C258.797591,94.8777712 257.922345,96.6912535 256.343088,98.0152041 C254.763365,99.3382507 252.681574,100 250.09818,100 C247.271895,100 245.049581,99.0760823 243.429842,97.2277948 C241.809637,95.3799593 241,92.8432537 241,89.6176779 L241,88.3090958 C241,86.2501695 241.373643,84.4362351 242.119998,82.8677447 C242.867284,81.2992542 243.934236,80.0955394 245.322252,79.2570525 C246.709803,78.4194695 248.321632,78 250.159136,78 C252.702047,78 254.750801,78.6617493 256.305398,79.9856999 C257.859063,81.3091985 258.757574,83.1669783 259,85.5590393 L254.458122,85.5590393 C254.346913,84.1763268 253.950936,83.1742105 253.269724,82.5517865 C252.588512,81.9293625 251.551804,81.6179244 250.159136,81.6179244 C248.645021,81.6179244 247.511995,82.1449734 246.760056,83.1986193 C246.008582,84.2527172 245.622376,85.8872018 245.602368,88.1029771 L245.602368,89.7207372 C245.602368,92.0345997 245.962982,93.7255861 246.684676,94.7946005 C247.40637,95.8631629 248.544049,96.396992 250.09818,96.396992 C251.50062,96.396992 252.54803,96.086006 253.239479,95.463582 C253.930462,94.840706 254.326905,93.877463 254.427412,92.573401 L258.96929,92.573401" id="Fill-2" fill="#00A3DB"></path>
                <polyline id="Fill-3" fill="#00A3DB" points="267.884858 78 273.499769 93.9559215 279.084224 78 285 78 285 100 280.48103 100 280.48103 93.9861094 280.930943 83.6056576 275.030857 100 271.938226 100 266.053368 83.6209837 266.503742 93.9861094 266.503742 100 262 100 262 78 267.884858 78"></polyline>
                <path d="M305.969754,92.573401 C305.798051,94.8777712 304.922783,96.6912535 303.343019,98.0152041 C301.76372,99.3382507 299.681876,100 297.09795,100 C294.272057,100 292.049686,99.0760823 290.429439,97.2277948 C288.809658,95.3799593 288,92.8432537 288,89.6176779 L288,88.3090958 C288,86.2501695 288.373187,84.4362351 289.120027,82.8677447 C289.866867,81.2992542 290.933847,80.0955394 292.322364,79.2570525 C293.709485,78.4194695 295.321821,78 297.158907,78 C299.70235,78 301.750692,78.6617493 303.305328,79.9856999 C304.859499,81.3091985 305.758033,83.1669783 306,85.5590393 L301.458005,85.5590393 C301.346793,84.1763268 300.951271,83.1742105 300.270041,82.5517865 C299.588812,81.9293625 298.551612,81.6179244 297.158907,81.6179244 C295.644754,81.6179244 294.512163,82.1449734 293.759739,83.1986193 C293.008247,84.2527172 292.62203,85.8872018 292.602022,88.1029771 L292.602022,89.7207372 C292.602022,92.0345997 292.96311,93.7255861 293.684357,94.7946005 C294.40607,95.8631629 295.543779,96.396992 297.09795,96.396992 C298.500892,96.396992 299.548329,96.086006 300.23933,95.463582 C300.930796,94.840706 301.326784,93.877463 301.427759,92.573401 L305.969754,92.573401" id="Fill-4" fill="#00A3DB"></path>
                <path d="M231,15 L289,15 L231,15 Z M231,24 L289,24 L231,24 Z M231,34 L289,34 L231,34 Z M231,44 L289,44 L231,44 Z M231,53 L289,53 L231,53 Z M279,5 L279,63 L279,5 Z M270,5 L270,63 L270,5 Z M260,5 L260,63 L260,5 Z M250,5 L250,63 L250,5 Z M241,5 L241,63 L241,5 Z M231,63 L289,63 L289,5 L231,5 L231,63 Z" id="Stroke-5" stroke="#ACBABE" stroke-width="1.676"></path>
                <path d="M255.68533,59 C255.68533,59 249.992559,57.01978 246.779888,53.9574375 C243.564489,50.8909648 243.029726,50.0754721 243.029726,50.0754721 L243.091115,51.9134283 C243.091115,51.9134283 237,45.714858 237,35.7683255 C237,25.822252 244.90367,18.1230282 248.250942,15.4636135 C251.599577,12.8087878 255.013238,10.5601024 256.488839,8.9910706 C258.149969,7.22837653 258.098585,7.20221835 258.632893,6.33349149 L258.900729,6.67767804 C258.900729,6.67767804 259.116726,5.13709903 259.569638,3.54282692 C260.052107,1.8590663 259.437766,0 259.437766,0 C259.437766,0 260.241275,0.748949939 260.909274,1.63511558 C261.580456,2.51944557 261.917411,3.33952739 261.917411,3.33952739 L262.116583,2.24730873 C262.116583,2.24730873 264.919997,6.61067639 264.996391,10.0832893 C265.074605,13.800504 263.855473,15.3966118 263.855473,15.3966118 L263.855473,16.0785601 C263.855473,16.0785601 262.106579,19.8228509 255.151022,27.4559908 C251.13075,31.8689213 248.452387,37.4713606 248.653378,42.7167636 C248.853005,47.9640024 252.26894,54.5723842 252.26894,54.5723842 L251.329012,54.502629 C251.329012,54.502629 252.47084,57.3676379 255.68533,59" id="Fill-6" fill="#00A3DB"></path>
                <path d="M263.269943,67 C263.269943,67 255,57.8559524 255,45.533645 C255,31.4286804 264.206224,22.9203767 264.433104,22.568718 C264.887321,21.8525292 264.502492,20 264.502492,20 C264.502492,20 267,21.5707425 267,23.8912308 C267,26.2107997 266.050481,27.0340949 265.24476,27.8923262 C264.433104,28.7496381 261.039487,32.1182074 259.081105,38.785474 C257.168829,45.3194319 257.362384,50.2527679 258.487199,54.4225676 C259.609275,58.6075369 261.581808,64.6785924 263.269943,67" id="Fill-7" fill="#00A3DB"></path>
                <path d="M269.027668,13 C269.027668,13 275.507483,18.8016729 275.507483,24.6563394 C275.507483,31.7294071 271.949669,35.676755 271.949669,35.676755 L271.998438,34.0683749 C271.998438,34.0683749 270.539944,36.5069889 268.34491,38.9474147 C266.156257,41.3833111 264.742886,42.3602967 264.206433,42.5577773 C263.675906,42.7502756 263.18412,42.7991928 263.18412,42.7991928 C263.18412,42.7991928 262.065182,43.8214722 261.529641,44.0656053 C260.992277,44.3101914 259.582096,44.4093847 260.120371,46.6527827 C260.653177,48.8961808 262.065182,49.9207248 262.162263,50.2608807 C262.2598,50.6005836 262.505465,54.1584055 263.425227,55.5289935 C264.35365,56.8914287 265.96164,57.4748118 268.293863,56.5530846 C270.63429,55.6241103 274.823358,53.3363244 279.448607,47.4331936 C284.075224,41.5332333 284.464915,36.8485036 284.419793,36.11701 C284.366922,35.388234 283.639043,35.3370521 284.023265,34.3623312 C284.419793,33.3880632 285,31.7751538 285,31.7751538 L283.928007,33.0442839 C283.928007,33.0442839 283.587084,28.4130008 282.224759,24.5571462 C280.863346,20.7067269 277.794128,18.4628758 277.794128,18.4628758 L277.551198,19.7306471 C277.551198,19.7306471 276.577653,17.7821112 275.702101,17.1434697 C274.823358,16.5111694 273.993384,16.2693009 273.45921,15.1464695 C272.925493,14.0254499 269.027668,13 269.027668,13" id="Fill-8" fill="#4A6279"></path>
                <path d="M145.385152,50 C138.218413,47.8163837 133,41.1035508 133,33.1618116 C133,31.7279367 133.169985,30.3343316 133.491118,29 L144.811508,30.4669051 C144.811508,30.4669051 149.156223,30.6614669 148.995657,38.4217659 C148.839127,45.9549255 145.385152,50 145.385152,50" id="Fill-9" fill="#00A3DA"></path>
                <path d="M155.614866,50 C162.781147,47.8163837 168,41.1035508 168,33.1618116 C168,31.7279367 167.829566,30.3343316 167.508882,29 L156.188509,30.4669051 C156.188509,30.4669051 151.843352,30.6614669 152.004367,38.4217659 C152.160448,45.9549255 155.614866,50 155.614866,50" id="Fill-10" fill="#00A3DA"></path>
                <path d="M150.000228,21.1599094 C151.481441,21.1599094 152.682819,22.3911293 152.682819,23.910179 C152.682819,25.090468 151.890256,25.9749838 150.929974,26.4978434 C150.812844,26.5618575 150.703462,26.6169937 150.727162,26.8038962 C150.751773,26.998742 151.300505,27.1038746 151.537499,27.1594781 L167,29 C164.831048,21.4837179 158.045267,16 150.01071,16 L149.98929,16 C141.954733,16 135.169408,21.4837179 133,29 L148.462956,27.1594781 C148.699495,27.1038746 149.248227,26.998742 149.273294,26.8038962 C149.296993,26.6169937 149.187156,26.5618575 149.070026,26.4978434 C148.109744,25.9749838 147.317636,25.090468 147.317636,23.910179 C147.317636,22.3911293 148.518559,21.1599094 150.000228,21.1599094" id="Fill-11" fill="#00A3DA"></path>
                <path d="M156.951441,63 L158,62.3801948 C158,62.3801948 153.016719,56 141.869102,56 C136.163937,56 133.213353,58.1680232 129.213295,58.1680232 C129.213295,58.1680232 127.57398,58.3536194 126,57.4243433 C126,57.4243433 127.901569,60.0265754 134.786876,60.0265754 C139.836405,60.0265754 143.442625,57.2387471 146.983966,57.2387471 C151.836577,57.2387471 155.442796,61.3274756 156.951441,63" id="Fill-12" fill="#00A3DA"></path>
                <path d="M142.049457,63 L141,62.3801948 C141,62.3801948 145.983666,56 157.131125,56 C162.835751,56 165.78675,58.1680232 169.78675,58.1680232 C169.78675,58.1680232 171.426042,58.3536194 173,57.4243433 C173,57.4243433 171.098458,60.0265754 164.21325,60.0265754 C159.164249,60.0265754 155.557624,57.2387471 152.016334,57.2387471 C147.164249,57.2387471 143.557624,61.3274756 142.049457,63" id="Fill-13" fill="#00A3DA"></path>
                <path d="M137,55.3473694 C136.799523,55.890854 134.624586,55.2455845 133.152714,55.687284 C131.507874,56.1805861 122.814184,57.2500386 119,48.0770806 C119,48.0770806 122.613707,52.0182901 125.424109,52.289559 C128.234511,52.5617746 131.312526,53.2411303 133.921985,54.7361861 L134.524347,54.8715838 C134.524347,54.8715838 134.440893,54.5998415 134.189598,54.4639704 C133.845524,54.2779169 131.141421,53.3883634 129.840189,49.0281785 C129.171156,46.7860682 129.304963,45.1551413 129.03735,44 C129.03735,44 131.981558,47.3295527 133.185816,49.4357919 C134.390541,51.5425045 134.524347,53.9204859 137,55.3473694" id="Fill-14" fill="#00A3DA"></path>
                <path d="M127.986649,49.9334521 C127.781708,50.140692 127.262552,49.8063627 127.073408,49.7111563 C126.884704,49.6155072 125.524278,48.9893593 123.200144,48.1542002 C120.901025,47.3278976 116.618316,43.6733017 117.027322,37.4131513 C117.027322,37.4131513 117.625909,39.7649699 119.389197,41.321926 C121.152923,42.8788821 121.783107,43.0697377 122.853455,44.3406319 C123.924242,45.6119689 126.349311,48.5035854 126.443663,48.4717024 C126.538015,48.4402621 126.569612,48.2812896 126.380908,48.1223171 C126.191765,47.9633447 125.562019,46.3745055 125.152575,45.8342647 C124.743131,45.294024 123.514798,41.5761048 125.310121,37 C125.310121,37 127.230955,40.3366509 127.105005,43.7051848 C126.979056,47.0737187 126.82151,46.2792991 127.640399,49.0757092 C127.640399,49.0757092 128.08144,49.8382458 127.986649,49.9334521" id="Fill-15" fill="#00A3DA"></path>
                <path d="M122.44343,41.9878968 C122.32616,42.1025416 121.825837,41.3817902 121.435993,40.7121401 C121.046149,40.04249 118.316788,37.1728149 117.959544,36.5987021 C117.601848,36.0245894 114.547843,32.3892825 116.85476,27.0005322 C116.85476,27.0005322 117.082055,26.9365444 117.082055,28.2118568 C117.082055,29.4876135 118.284188,32.3257391 119.259024,33.537508 C120.233861,34.749277 121.111349,36.6942395 121.306045,38.7671776 C121.306045,38.7671776 121.435993,39.1497713 121.598541,39.1817652 C121.76109,39.2133147 121.76109,38.7987271 121.76109,38.7987271 C121.76109,38.7987271 121.631142,36.8857585 121.631142,35.5780079 C121.631142,34.2707016 122.216134,32.0386827 123.483014,30.7629259 C123.483014,30.7629259 124.068006,30.1252697 124.42525,29.3600823 C124.42525,29.3600823 124.652999,28.8499573 124.978095,28.5948949 C124.978095,28.5948949 125.237539,32.2617513 123.970659,35.6739896 C122.703326,39.0857835 122.280882,39.6598963 122.47603,41.5093214 C122.47603,41.5093214 122.508177,41.923909 122.44343,41.9878968" id="Fill-16" fill="#00A3DA"></path>
                <path d="M120.250729,31.989711 C120.122193,31.989711 120.025455,31.5365017 119.961411,31.1806986 C119.896919,30.8244445 119.51131,28.7536614 119.254238,28.3004522 C118.997165,27.8472429 118.03292,25.7764598 118.000674,23.3489717 C117.968876,20.9219346 119.06121,17.6213985 121.504293,15 C121.504293,15 121.407555,15.7765437 120.764874,17.4919746 C120.122193,19.2069546 120.507802,20.8249793 120.571846,21.1162959 C120.636338,21.4076126 120.861164,23.4116544 120.861164,24.3523455 C120.861164,25.0968714 120.668584,27.6533324 120.507802,28.1710282 C120.507802,28.1710282 120.44331,28.5268313 120.571846,28.5268313 C120.700382,28.5268313 120.828918,28.2355147 120.828918,28.2355147 C120.828918,28.2355147 120.957455,26.2292181 122.435845,24.4172829 C123.914683,22.6048968 126.582145,21.5045678 127,20.6955554 C127,20.6955554 126.806972,23.5433331 123.689409,26.8767888 C120.913564,29.8449713 121.72912,28.3329209 120.828918,30.759958 C120.828918,30.759958 120.44331,31.6659256 120.44331,31.860287 C120.44331,32.0541975 120.250729,31.989711 120.250729,31.989711" id="Fill-17" fill="#00A3DA"></path>
                <path d="M122.002955,23 C122.002955,23 121.93594,22.5964693 122.440194,21.6886424 C122.944447,20.7803468 122.406452,19.166224 123.079415,16.8115919 C123.75191,14.4574285 124.996142,10.4211842 129.737815,8 C129.737815,8 129.267303,8.43727543 129.031579,8.77331667 C128.796323,9.10982659 127.518348,11.5314795 127.148594,13.2130917 C126.77837,14.894704 125.164383,17.7198875 124.558903,18.358694 C123.953424,18.9979691 124.222422,19.0649898 124.222422,19.0649898 C124.222422,19.0649898 124.525161,18.9979691 124.827901,18.5269489 C125.130641,18.0559288 126.677613,16.3072957 128.392826,15.903765 C130.108039,15.5002343 132.831759,14.6927043 133,14.5244493 C133,14.5244493 130.040555,17.5516326 127.316366,19.0987346 C124.592645,20.6458366 124.289905,20.1748164 122.67545,22.2604281 C122.67545,22.2604281 122.137454,23 122.002955,23" id="Fill-18" fill="#00A3DA"></path>
                <path d="M128,12.9646068 C128,12.9646068 128,12.7103357 128.471253,12.2651397 C128.942945,11.8203868 129.414198,10.485242 130.231446,9.24533818 C131.048694,8.00543432 132.90305,4.76325629 137.711499,4 C137.711499,4 136.265767,5.08087367 136.045907,5.43038569 C135.826047,5.78034069 134.411411,7.6559223 133.782927,8.29160005 C133.154443,8.92727781 131.362717,10.2624226 130.765767,10.5485883 C130.765767,10.5485883 130.451306,10.8028594 130.514373,10.8985433 C130.577003,10.9937842 130.891464,10.8028594 130.891464,10.8028594 C130.891464,10.8028594 132.557055,9.49960928 134.568642,9.43626299 C136.580228,9.37247373 138.685977,9.46771464 139,9.49960928 C139,9.49960928 137.114548,10.8028594 132.620123,11.629462 C128.125697,12.4560646 128.97404,12.4879592 128.282927,12.9327121 C128.282927,12.9327121 128.125697,13.0598477 128,12.9646068" id="Fill-19" fill="#00A3DA"></path>
                <path d="M137,7.68225811 C137,7.68225811 137.098669,7.43707696 137.856356,7.2222231 C138.613584,7.00779638 138.547958,6.33333465 140.853144,5.19926504 C143.158788,4.06519544 145.562643,3.54407872 148,4.49404888 C148,4.49404888 146.978889,4.6170666 146.814135,4.67814832 C146.64938,4.73923003 144.904084,5.16851061 144.409821,5.41369176 C143.916017,5.65887291 141.379991,6.70110637 140.359339,6.8852058 C139.338229,7.06930524 139.832492,7.13038695 139.832492,7.13038695 C139.832492,7.13038695 140.062873,7.2222231 140.26067,7.2222231 C140.458008,7.2222231 142.73061,7.00779638 144.212483,7.49815868 C145.694355,7.98852097 145.661313,8.17262041 146.254245,8.3562927 C146.847178,8.54039213 147.538779,8.66298271 147.637448,8.87740943 C147.637448,8.87740943 146.155576,9 145.266177,9 C144.377237,9 142.039009,8.78557328 140.919229,8.29521098 C139.799449,7.80442154 138.514915,7.58999482 138.086737,7.68225811 C137.658559,7.77409425 137.131712,7.77409425 137,7.68225811" id="Fill-20" fill="#00A3DA"></path>
                <path d="M146,6.38335112 C146,6.38335112 146.096062,6.2518616 146.734249,6.12037209 C147.372437,5.98888257 147.532095,5.59441403 149.032169,5.26546117 C150.531798,4.9365083 152.861738,4.64100051 155,6.153359 C155,6.153359 153.691604,6.12037209 153.404309,6.12037209 C153.117013,6.12037209 150.62786,6.58081447 150.053269,6.58081447 C149.479122,6.58081447 148.32994,6.31737728 148.170282,6.51484063 C148.011069,6.71230398 149.223403,6.97528301 149.415081,7.04079869 C149.60676,7.10677252 150.468202,7.17228821 151.553343,8.25719124 C152.638484,9.34255243 153.404309,9.93402617 153.531946,10 C153.531946,10 150.340564,9.24359168 149.542719,8.7831493 C148.744873,8.32316507 147.372437,6.90930918 147.149182,6.81080658 C146.925928,6.71230398 146,6.38335112 146,6.38335112" id="Fill-21" fill="#00A3DA"></path>
                <path d="M153,8.00101281 C153,8.00101281 154.928907,7.93242608 156.336556,8.92407584 C157.744632,9.91524929 158.877577,11.2141104 159,12 C159,12 158.204038,11.2484038 157.683634,11.0774133 C157.16323,10.9064228 155.694156,9.98335972 155.387886,9.77855214 C155.081615,9.57326826 153.30627,8.30870049 153,8.00101281" id="Fill-22" fill="#00A3DA"></path>
                <path d="M163,55.5986874 C163,55.5986874 163.285606,55.2991189 164.238956,54.4324602 C165.192306,53.5658015 165.446916,52.2992538 166.495468,50.3327839 C167.54402,48.366314 168.433606,46.9999101 170.562591,45 C170.562591,45 170.18134,46.4997003 170.149458,46.9664699 C170.117577,47.4332394 169.768207,50.0327509 168.56069,51.5324513 C167.353173,53.0321516 167.289852,53.3656248 165.891488,54.2657236 C165.891488,54.2657236 165.351271,54.6656127 165.383153,54.7989091 C165.415034,54.9322055 166.336502,54.7654689 166.336502,54.7654689 C166.336502,54.7654689 167.353173,54.3655798 167.671103,54.1658674 C167.989034,53.9656907 169.418837,53.1988882 169.990493,52.9657356 C170.562591,52.7325831 171.039487,52.4994305 172.310325,52.099077 C173.581163,51.6991878 178.188946,50.4660803 180,47.3997992 C180,47.3997992 179.459783,49.1995325 178.792926,50.0327509 C178.125625,50.8659694 174.344108,56.0988971 169.100906,55.9985765 C169.100906,55.9985765 167.035685,55.8323044 165.955251,55.6321276 C164.874375,55.4324152 164.493566,55.4324152 164.334601,55.4658554 C164.175636,55.4988312 163.158965,55.6985435 163,55.5986874" id="Fill-23" fill="#00A3DA"></path>
                <path d="M175.194238,37.3942234 C175.194238,37.3942234 173.102576,40.5814345 172.630083,45.1816228 C172.15759,49.7813532 172.967645,48.4013425 172.19144,50.43885 C172.19144,50.43885 171.921579,50.9644812 172.022659,50.9969897 C172.12421,51.0299561 172.529002,50.800107 174.013241,49.912761 C175.49795,49.0258729 176.948808,49.2886885 180.119917,46.3313265 C183.291026,43.3744223 183.9323,37.4926647 184,37 C184,37 183.527507,37.4601562 183.291026,38.2486029 C183.055484,39.0370496 182.549141,39.66158 182.447591,39.7600214 C182.34651,39.8584628 178.90507,43.5387965 178.500748,43.8670871 C178.095485,44.1958355 176.071523,46.594142 175.632881,47.2841474 C175.194238,47.9741527 173.91216,49.2227556 173.675679,49.1243143 C173.675679,49.1243143 173.709529,48.8285323 173.81108,48.5986831 C173.91216,48.3683761 174.856676,47.1197732 175.261938,45.6742875 C175.666731,44.2288019 175.767811,43.3414559 175.801662,42.4216014 C175.835042,41.501289 175.228088,38.1171951 175.194238,37.3942234" id="Fill-24" fill="#00A3DA"></path>
                <path d="M178.134466,42 C178.134466,42 177.936064,41.5234645 178.10258,41.1803407 C178.197795,40.9834214 178.293453,39.4098949 177.721276,38.1310619 C177.149542,36.852229 175.909974,33.3113374 176.005189,30.9505907 C176.100404,28.589844 176.355049,28.2622544 176.355049,28.2622544 C176.355049,28.2622544 176.990555,30.1967235 177.180986,30.524313 C177.371416,30.8523595 179.278377,34.3279159 179.11939,36.2294889 C178.960402,38.1310619 178.86563,38.7213628 178.960402,38.753802 C179.05606,38.786698 179.278377,38.5244436 179.310263,38.2950852 C179.342149,38.0652699 179.660123,36.7539978 180.263743,35.2129104 C180.867363,33.671823 183.314615,30.2620586 183.854906,28 C183.854906,28 184.649399,31.9342732 182.520122,35.606292 C180.390844,39.2787677 180.168528,38.4591084 179.278377,40.1308661 C178.388668,41.8030807 178.261567,42 178.134466,42" id="Fill-25" fill="#00A3DA"></path>
                <path d="M179.675476,31 C179.520576,30.9674381 179.613775,29.4535384 179.242274,28.9596063 C178.870773,28.4661328 175.681301,24.4509278 175,20.4357229 C175,20.4357229 177.012837,22.6077401 177.353271,22.8379666 C177.694138,23.0686517 179.056308,24.5165103 179.458875,25.7671629 C179.861443,27.0178156 179.768675,28.0712623 179.923575,28.1038242 C180.078475,28.1368447 180.078475,26.721548 180.078475,26.721548 C180.078475,26.721548 180.10911,23.9569957 180.325711,22.6407606 C180.542744,21.3240669 181.099779,19.1194878 180.852544,18 C180.852544,18 182.059814,20.0408523 181.997681,22.9370282 C181.93598,25.833204 180.790411,28.1368447 180.635511,28.4661328 C180.480611,28.7949623 180.047409,30.2102589 180.047409,30.5065265 C180.047409,30.802794 179.675476,31 179.675476,31" id="Fill-26" fill="#00A3DA"></path>
                <path d="M176.193227,11 C176.193227,11 180.615607,13.7192214 179.927235,22.8284474 C179.927235,22.8284474 179.927235,23.2362595 179.665216,22.7943446 C179.403196,22.3524297 178.453261,21.0948904 178.027365,20.8230156 C177.601469,20.5511409 173.670718,18.0696915 172,14.262971 C172,14.262971 172.26202,14.1947654 172.655049,14.5689485 C173.048079,14.9426579 174.260033,15.5882421 174.456776,15.6905504 C174.653519,15.792385 176.029351,16.1660944 177.044563,17.321799 C178.060231,18.4775036 178.420394,19.3272307 178.71528,20.0073913 C178.71528,20.0073913 179.010167,20.2451633 178.81388,19.5654764 C178.617137,18.8853158 178.58427,18.4434009 178.060231,17.5936738 C177.536192,16.7439467 177.077429,15.2145327 177.012153,14.1606627 C176.94642,13.1072663 176.651533,11.5437496 176.193227,11" id="Fill-27" fill="#00A3DA"></path>
                <path d="M174.990393,13 C174.990393,13 175.086922,12.4472221 174.668029,11.6796651 C174.249136,10.9121081 174.575989,10.0585539 173.250618,8.02628201 C172.509811,6.890349 169.93225,6 169.93225,6 C169.93225,6 170.673057,6.98233604 171.156154,7.53511399 C171.639699,8.08746409 171.800431,8.48664507 171.961613,8.76303404 C172.122795,9.03942302 173.0176,9.85789377 173.347147,10.328953 C173.4118,10.42094 173.540206,10.6665241 173.540206,10.820121 C173.540206,10.973718 173.185966,10.728134 173.089436,10.6361469 C172.992907,10.543732 171.413865,9.40779903 170.415346,9.2233971 C169.416379,9.03942302 167.515422,8.85502109 167,8.60943708 C167,8.60943708 169.255197,10.543732 171.703902,11.127315 C174.152607,11.71047 174.990393,13 174.990393,13" id="Fill-28" fill="#00A3DA"></path>
                <path d="M170,8 C170,8 167.845934,4.93629436 164,5.00101104 C164,5.00101104 164.215235,5.22662058 164.646134,5.32324618 C165.077033,5.41987178 165.84622,6.22658318 166.24582,6.48455106 C166.646277,6.74251894 167.476776,7.38743864 170,8" id="Fill-29" fill="#00A3DA"></path>
                <path d="M45,4 L45,42.4144722 C45,45.7715808 44.435133,48.7368445 43.3063182,51.3079852 C42.1775034,53.8795814 40.6175696,56.0319947 38.6292744,57.7638582 C36.6391408,59.4957217 34.267067,60.8015677 31.5116742,61.680485 C28.7562814,62.5598579 25.7522368,63 22.5,63 C19.2201863,63 16.2032725,62.5598579 13.4478796,61.680485 C10.6924868,60.8015677 8.32041304,59.4957217 6.33119868,57.7638582 C4.34106508,56.0319947 2.78940434,53.8795814 1.67391837,51.3079852 C0.557972791,48.7368445 0,45.7715808 0,42.4144722 L0,4 L12.0970707,4 L12.0970707,42.4144722 C12.0970707,46.2253919 13.0176799,49.0029346 14.8588981,50.7475558 C16.7001164,52.4944552 19.2477632,53.3660823 22.5,53.3660823 C25.7798137,53.3660823 28.3270009,52.4944552 30.1406422,50.7475558 C31.9556625,49.0029346 32.8624831,46.2253919 32.8624831,42.4144722 L32.8624831,4 L45,4" id="Fill-30" fill="#00A3DA"></path>
                <polyline id="Fill-31" fill="#00A3DA" points="101 62 89.0915174 62 65.9084826 23.8381023 65.9084826 62 54 62 54 4 65.9084826 4 89.131336 42.2413591 89.131336 4 101 4 101 62"></polyline>
                <path d="M8.62227398,86 C8.07685793,86 7.59813678,86.0977834 7.18561649,86.2938569 C6.77359023,86.4909436 6.41936622,86.7640279 6.12393253,87.1156428 C5.82751076,87.4672578 5.5869151,87.8867638 5.40066342,88.3751742 C5.21539982,88.8630779 5.08102195,89.4046865 5,90 L12,90 L12,89.589107 C11.9886372,89.0768841 11.9160138,88.6006333 11.7831181,88.1603547 C11.6487402,87.7195693 11.4461853,87.3385687 11.1729833,87.0178594 C10.9007693,86.6961368 10.5519797,86.4463585 10.1280965,86.2670044 C9.70470746,86.0891704 9.2027666,86 8.62227398,86 Z M8.74937879,100 C7.38052586,100 6.1554464,99.7801548 5.07506501,99.3418298 C3.99375903,98.9035048 3.07702976,98.3049613 2.32164114,97.545289 C1.56625253,96.7865271 0.991158625,95.8962221 0.594510257,94.8743741 C0.19786189,93.8529813 0,92.7601274 0,91.5939918 L0,90.9676832 C0,89.6531634 0.19231436,88.4469731 0.578329962,87.3504779 C0.963883271,86.2544379 1.51216411,85.3108785 2.22409708,84.5193446 C2.93510546,83.7273555 3.7986709,83.1101502 4.81433112,82.6663632 C5.83045363,82.2225762 6.9676972,82 8.22791101,82 C9.49921988,82 10.6175094,82.2066454 11.5841664,82.6185708 C12.5508235,83.030041 13.362612,83.6076468 14.0204565,84.3509331 C14.6773765,85.0937642 15.1715689,85.9895312 15.5030338,87.038234 C15.8344987,88.0860264 16,89.2517069 16,90.534365 L16,92.5084206 L4.77364923,92.5084206 C4.84946547,93.0746472 5.0047963,93.588985 5.23779255,94.0477924 C5.47171338,94.5075102 5.76989309,94.9007738 6.13371858,95.2271279 C6.49800636,95.553482 6.92424155,95.8070096 7.41334874,95.9895312 C7.90199364,96.1711425 8.45027449,96.2617205 9.05911586,96.2617205 C9.91713378,96.2617205 10.7095059,96.104233 11.4376192,95.7883477 C12.1657324,95.4738279 12.7902918,94.9845244 13.3112973,94.3208921 L15.6250795,96.8716431 C15.34308,97.2676377 14.9898873,97.6527082 14.5659636,98.0263996 C14.1425022,98.4010014 13.6427622,98.7350933 13.067206,99.0295858 C12.4911875,99.323168 11.8425888,99.558944 11.1195608,99.7350933 C10.3979197,99.9121529 9.60739671,100 8.74937879,100 L8.74937879,100 Z" id="Fill-32" fill="#00A3DA"></path>
                <path d="M22.3684498,82.32718 L22.5124396,84.369043 C23.1116377,83.6067043 23.8347763,83.0218583 24.6809441,82.613115 C25.5266563,82.2048351 26.4689693,82 27.5069717,82 C28.3317233,82 29.0812904,82.1177107 29.7552174,82.3517417 C30.4300556,82.5862362 31.0082931,82.9699544 31.4899298,83.5033599 C31.9715666,84.0367653 32.343844,84.7342241 32.6063064,85.5934193 C32.8683131,86.4540048 33,87.5106202 33,88.7623388 L33,100 L28.3581518,100 L28.3581518,88.7298988 C28.3581518,88.16359 28.2966372,87.6955279 28.1740636,87.3252491 C28.050123,86.9545068 27.8710471,86.661157 27.6363802,86.4428825 C27.4003463,86.2255349 27.1105441,86.0698231 26.7687961,85.977601 C26.4261369,85.8853789 26.0297093,85.8390361 25.579969,85.8390361 C24.8946505,85.8390361 24.3086667,85.9910404 23.821562,86.2964393 C23.3344573,86.6013748 22.9407637,87.014289 22.6409368,87.5379625 L22.6409368,100 L18,100 L18,82.32718 L22.3684498,82.32718" id="Fill-33" fill="#00A3DA"></path>
                <polyline id="Fill-34" fill="#00A3DA" points="43 94.1272846 46.1967509 82 51 82 45.1949458 100 40.8050542 100 35 82 39.8032491 82 43 94.1272846"></polyline>
                <path d="M54,100 L59,100 L59,82 L54,82 L54,100 Z M54,77.4919324 C54,76.7672741 54.2233316,76.1702733 54.6708706,75.7018793 C55.1184095,75.2334852 55.7288492,75 56.5004379,75 C56.8805395,75 57.2251708,75.0612187 57.5343318,75.183656 C57.8430548,75.3060934 58.1049221,75.479309 58.3216851,75.7018793 C58.5371343,75.9253986 58.704852,76.1897304 58.8230864,76.496773 C58.9408828,76.8038155 59,77.1345862 59,77.4919324 C59,77.8597191 58.9408828,78.1976082 58.8230864,78.503227 C58.704852,78.8102696 58.5371343,79.0746014 58.3216851,79.2981207 C58.1049221,79.5216401 57.8430548,79.6943812 57.5343318,79.8168185 C57.2251708,79.9387813 56.8805395,80 56.5004379,80 C56.1198984,80 55.7748292,79.9387813 55.4661061,79.8168185 C55.1569452,79.6943812 54.8950779,79.5216401 54.6787528,79.2981207 C54.4633036,79.0746014 54.2955859,78.8102696 54.1773516,78.503227 C54.0591172,78.1976082 54,77.8597191 54,77.4919324 L54,77.4919324 Z" id="Fill-35" fill="#00A3DA"></path>
                <path d="M71.9346314,86.7538426 C71.6958739,86.7209392 71.4149281,86.6912798 71.093185,86.6639376 C70.7714418,86.6370588 70.4863236,86.6231559 70.2355123,86.6231559 C69.3092258,86.6231559 68.5609643,86.7779408 67.9884098,87.0889009 C67.4167826,87.3984707 66.9949003,87.8475322 66.7227631,88.4360856 L66.7227631,100 L62,100 L62,82.32718 L66.4612888,82.32718 L66.5915624,84.4343863 C67.0380158,83.6720476 67.5892443,83.0760794 68.2420028,82.6460184 C68.8952248,82.2159574 69.6583217,82 70.5299026,82 C70.7797867,82 71.0445063,82.022708 71.3222068,82.0653433 C71.5994437,82.1098324 71.8261474,82.1584923 72,82.2131768 L71.9346314,86.7538426" id="Fill-36" fill="#00A3DA"></path>
                <path d="M78,91.6763126 C78,92.4158725 78.0626468,93.1096864 78.187496,93.7587073 C78.3127896,94.4086813 78.514059,94.9709756 78.7904157,95.4465431 C79.0672168,95.9225871 79.4275468,96.3004679 79.8714059,96.5801854 C80.3148207,96.8603795 80.859981,97 81.5077753,97 C82.1337988,97 82.6687401,96.8603795 83.1121549,96.5801854 C83.556014,96.3004679 83.9190098,95.9225871 84.2011425,95.4465431 C84.4823865,94.9709756 84.6863218,94.4086813 84.8116154,93.7587073 C84.9364646,93.1096864 85,92.4158725 85,91.6763126 L85,91.3236874 C85,90.607477 84.9364646,89.9265292 84.8116154,89.2832265 C84.6863218,88.6399238 84.4823865,88.0738174 84.2011425,87.5868134 C83.9190098,87.0998094 83.5533481,86.7133512 83.1046017,86.428392 C82.655411,86.1424796 82.1129165,86 81.4766741,86 C80.849762,86 80.3148207,86.1424796 79.8714059,86.428392 C79.4275468,86.7133512 79.0672168,87.0998094 78.7904157,87.5868134 C78.514059,88.0738174 78.3127896,88.6399238 78.187496,89.2832265 C78.0626468,89.9265292 78,90.607477 78,91.3236874 L78,91.6763126 Z M73,90.8397815 C73,89.5785162 73.1762719,88.4069185 73.5301445,87.3263541 C73.8844599,86.2462449 74.3991031,85.3136095 75.0758457,84.5270824 C75.7521453,83.7410105 76.5870011,83.1238052 77.5817417,82.6745562 C78.5751536,82.2253072 79.7063057,82 80.9769695,82 C82.2560483,82 83.3960582,82.2253072 84.3947849,82.6745562 C85.3943974,83.1238052 86.2345679,83.7410105 86.9157394,84.5270824 C87.5977966,85.3136095 88.1150972,86.2462449 88.4694126,87.3263541 C88.8223994,88.4069185 89,89.5785162 89,90.8397815 L89,91.1766045 C89,92.4497041 88.8223994,93.6226673 88.4694126,94.6982249 C88.1150972,95.7724169 87.5977966,96.7027765 86.9157394,97.4893036 C86.2345679,98.2753755 85.3992692,98.8898498 84.4102862,99.3340919 C83.4217461,99.7778789 82.2879367,100 81.0079721,100 C79.7280075,100 78.5906549,99.7778789 77.597243,99.3340919 C76.6029452,98.8898498 75.7649892,98.2753755 75.0838177,97.4893036 C74.4017605,96.7027765 73.8844599,95.7724169 73.5301445,94.6982249 C73.1762719,93.6226673 73,92.4497041 73,91.1766045 L73,90.8397815 L73,90.8397815 Z" id="Fill-37" fill="#00A3DA"></path>
                <path d="M96.3684498,82.32718 L96.5128953,84.369043 C97.1120933,83.6067043 97.8352319,83.0218583 98.6809441,82.613115 C99.5266563,82.2048351 100.468969,82 101.506972,82 C102.331723,82 103.08129,82.1177107 103.755673,82.3517417 C104.430511,82.5862362 105.008293,82.9699544 105.48993,83.5033599 C105.971567,84.0367653 106.343844,84.7342241 106.606762,85.5934193 C106.868313,86.4540048 107,87.5106202 107,88.7623388 L107,100 L102.358607,100 L102.358607,88.7298988 C102.358607,88.16359 102.297093,87.6955279 102.174064,87.3252491 C102.050123,86.9545068 101.871503,86.661157 101.63638,86.4428825 C101.400346,86.2255349 101.111,86.0698231 100.768796,85.977601 C100.426137,85.8853789 100.030165,85.8390361 99.5804247,85.8390361 C98.8946505,85.8390361 98.3086667,85.9910404 97.821562,86.2964393 C97.3344573,86.6013748 96.9412194,87.014289 96.6409368,87.5379625 L96.6409368,100 L92,100 L92,82.32718 L96.3684498,82.32718" id="Fill-38" fill="#00A3DA"></path>
                <path d="M115.367511,82.32718 L115.5134,84.3032363 C116.093296,83.5849231 116.800329,83.0218583 117.633129,82.613115 C118.465014,82.2048351 119.43044,82 120.525748,82 C121.568005,82 122.489527,82.2131768 123.290314,82.6376767 C124.090643,83.06264 124.711241,83.7480497 125.151651,84.6952962 C125.721943,83.8574187 126.43858,83.1984243 127.303393,82.71924 C128.168664,82.2400556 129.197201,82 130.390378,82 C131.239184,82 132.010702,82.1204912 132.703101,82.35962 C133.396872,82.5996756 133.987286,82.9861744 134.476173,83.5195798 C134.96506,84.0529852 135.341443,84.7467367 135.604866,85.601761 C135.867831,86.4567854 136,87.5045957 136,88.7461188 L136,100 L131.325162,100 L131.325162,88.7461188 C131.325162,88.1584923 131.263423,87.6737468 131.140401,87.2923457 C131.016007,86.911408 130.841763,86.6152777 130.616299,86.4021009 C130.390378,86.1903144 130.115979,86.0429443 129.794475,85.961381 C129.4716,85.8798177 129.106192,85.8390361 128.697796,85.8390361 C127.978414,85.8390361 127.376109,86.0211632 126.89271,86.3858809 C126.408854,86.751062 126.043446,87.2436858 125.796945,87.8637522 C125.796945,87.9193636 125.799689,87.9791457 125.80472,88.0440256 C125.810208,88.109369 125.812952,88.1691512 125.812952,88.2233722 L125.812952,100 L121.154121,100 L121.154121,88.7785587 C121.154121,88.1909323 121.095125,87.7061868 120.977133,87.3252491 C120.859142,86.943848 120.686728,86.6449371 120.461721,86.4266625 C120.235343,86.2093149 119.959115,86.0563837 119.631208,85.9692593 C119.303302,85.8825983 118.93515,85.8390361 118.527669,85.8390361 C117.839385,85.8390361 117.25949,85.9859427 116.786609,86.2802194 C116.313272,86.5735692 115.937803,86.9818491 115.657916,87.5045957 L115.657916,100 L111,100 L111,82.32718 L115.367511,82.32718" id="Fill-39" fill="#00A3DA"></path>
                <path d="M146.622274,86 C146.076858,86 145.597643,86.0977834 145.185616,86.2938569 C144.77359,86.4909436 144.418872,86.7640279 144.123933,87.1156428 C143.827511,87.4672578 143.586915,87.8867638 143.400663,88.3751742 C143.2154,88.8630779 143.081022,89.4046865 143,90 L150,90 L150,89.589107 C149.988637,89.0768841 149.916014,88.6006333 149.783118,88.1603547 C149.64874,87.7195693 149.446185,87.3385687 149.172983,87.0178594 C148.900769,86.6961368 148.55198,86.4463585 148.128097,86.2670044 C147.704213,86.0891704 147.202273,86 146.622274,86 Z M146.749632,100 C145.380739,100 144.155624,99.7801548 143.075212,99.3418298 C141.993874,98.9035048 141.077119,98.3049613 140.321708,97.545289 C139.566298,96.7865271 138.990725,95.8962221 138.594527,94.8743741 C138.197868,93.8529813 138,92.7601274 138,91.5939918 L138,90.9676832 C138,89.6531634 138.19232,88.4469731 138.577884,87.3504779 C138.963911,86.2544379 139.512208,85.3108785 140.224161,84.5193446 C140.93519,83.7273555 141.798781,83.1101502 142.814008,82.6663632 C143.830622,82.2225762 144.967899,82 146.228149,82 C147.499032,82 148.617816,82.2066454 149.584501,82.6185708 C150.550724,83.030041 151.362998,83.6076468 152.020862,84.3509331 C152.677801,85.0937642 153.171545,85.9895312 153.503482,87.038234 C153.834956,88.0860264 154,89.2517069 154,90.534365 L154,92.5084206 L142.773325,92.5084206 C142.849606,93.0746472 143.004941,93.588985 143.237944,94.0477924 C143.471871,94.5075102 143.77006,94.9007738 144.133896,95.2271279 C144.498194,95.553482 144.924442,95.8070096 145.413101,95.9895312 C145.902222,96.1711425 146.450519,96.2617205 147.059378,96.2617205 C147.91742,96.2617205 148.709815,96.104233 149.43795,95.7883477 C150.166084,95.4738279 150.790199,94.9845244 151.311682,94.3208921 L153.625069,96.8716431 C153.343523,97.2676377 152.99032,97.6527082 152.566384,98.0263996 C152.142911,98.4010014 151.643156,98.7350933 151.067584,99.0295858 C150.491548,99.323168 149.842469,99.558944 149.119882,99.7350933 C148.39822,99.9121529 147.607674,100 146.749632,100 L146.749632,100 Z" id="Fill-40" fill="#00A3DA"></path>
                <path d="M161.36845,82.32718 L161.51244,84.369043 C162.111638,83.6067043 162.834776,83.0218583 163.680488,82.613115 C164.526656,82.2048351 165.468514,82 166.506972,82 C167.331268,82 168.08129,82.1177107 168.755217,82.3517417 C169.430056,82.5862362 170.008293,82.9699544 170.48993,83.5033599 C170.971567,84.0367653 171.343844,84.7342241 171.606306,85.5934193 C171.868313,86.4540048 172,87.5106202 172,88.7623388 L172,100 L167.358152,100 L167.358152,88.7298988 C167.358152,88.16359 167.296637,87.6955279 167.174064,87.3252491 C167.050123,86.9545068 166.871047,86.661157 166.635925,86.4428825 C166.399891,86.2255349 166.110544,86.0698231 165.768796,85.977601 C165.426137,85.8853789 165.029709,85.8390361 164.579969,85.8390361 C163.894195,85.8390361 163.308667,85.9910404 162.821562,86.2964393 C162.334457,86.6013748 161.940764,87.014289 161.640937,87.5379625 L161.640937,100 L157,100 L157,82.32718 L161.36845,82.32718" id="Fill-41" fill="#00A3DA"></path>
                <path d="M180.951725,78 L180.951725,82.278082 L183.82923,82.278082 L183.82923,85.6874067 L180.951725,85.6874067 L180.951725,94.371329 C180.951725,94.7358968 180.988351,95.0365854 181.060718,95.2715696 C181.133086,95.5079227 181.242521,95.6927161 181.387256,95.8264062 C181.532433,95.9610088 181.711588,96.0518085 181.923837,96.1001742 C182.136528,96.1480836 182.387609,96.1722665 182.678404,96.1722665 C182.948019,96.1722665 183.193805,96.161772 183.417086,96.1403269 C183.639926,96.1188817 183.834525,96.0919612 184,96.0600216 L184,99.5820475 C183.626688,99.6997677 183.219839,99.7987805 182.779013,99.8786295 C182.338629,99.9598474 181.838231,100 181.278704,100 C180.542229,100 179.879446,99.90555 179.287706,99.7184752 C178.696849,99.5309441 178.191598,99.2334495 177.771953,98.8259914 C177.351867,98.4185333 177.027535,97.8878795 176.799841,97.2340302 C176.571706,96.5797246 176.457859,95.7917289 176.457859,94.8695869 L176.457859,85.6874067 L174,85.6874067 L174,82.278082 L176.457859,82.278082 L176.457859,78 L180.951725,78" id="Fill-42" fill="#00A3DA"></path>
            </g>
        </g>
    </g>
</svg>