<?xml version="1.0" encoding="UTF-8"?>
<svg width="280px" height="146px" viewBox="0 0 280 146" version="1.1" xmlns="http://www.w3.org/2000/svg" xmlns:xlink="http://www.w3.org/1999/xlink">
    <!-- Generator: Sketch 47.1 (45422) - http://www.bohemiancoding.com/sketch -->
    <title>UN-Environment-WCMC+logo+2017</title>
    <desc>Created with Sketch.</desc>
    <defs></defs>
    <g id="Page-1" stroke="none" stroke-width="1" fill="none" fill-rule="evenodd">
        <g id="UN-Environment-WCMC+logo+2017" fill-rule="nonzero" fill="#00A3DA">
            <path d="M221.3518,70 C210.15377,66.6725847 202,56.443506 202,44.3418082 C202,42.1568559 202.265602,40.0332672 202.767372,38 L220.455481,40.235284 C220.455481,40.235284 227.244098,40.5317591 226.993214,52.3569766 C226.748635,63.836077 221.3518,70 221.3518,70" id="Fill-9"></path>
            <path d="M236.648228,70 C247.845542,66.6725847 256,56.443506 256,44.3418082 C256,42.1568559 255.733697,40.0332672 255.232628,38 L237.544545,40.235284 C237.544545,40.235284 230.755237,40.5317591 231.006823,52.3569766 C231.2507,63.836077 236.648228,70 236.648228,70" id="Fill-10"></path>
            <path d="M228.000349,25.9383222 C230.265733,25.9383222 232.103135,27.8325066 232.103135,30.1695062 C232.103135,31.9853354 230.89098,33.3461289 229.422313,34.1505283 C229.243173,34.2490115 229.075883,34.3338365 229.11213,34.6213788 C229.14977,34.9211415 229.989008,35.082884 230.351469,35.1684278 L254,38 C250.682779,26.4364891 240.304526,18 228.01638,18 L227.98362,18 C215.695474,18 205.317918,26.4364891 202,38 L225.649227,35.1684278 C226.010992,35.082884 226.85023,34.9211415 226.888567,34.6213788 C226.924813,34.3338365 226.756827,34.2490115 226.577687,34.1505283 C225.10902,33.3461289 223.897561,31.9853354 223.897561,30.1695062 C223.897561,27.8325066 225.734267,25.9383222 228.000349,25.9383222" id="Fill-11"></path>
            <path d="M239.394394,90 L241,89.0260204 C241,89.0260204 233.369351,79 216.299562,79 C207.563529,79 203.045447,82.4068936 196.920358,82.4068936 C196.920358,82.4068936 194.410157,82.6985448 192,81.2382538 C192,81.2382538 194.911778,85.3274756 205.454904,85.3274756 C213.186995,85.3274756 218.70902,80.9466026 224.131698,80.9466026 C231.562259,80.9466026 237.084281,87.3717474 239.394394,90" id="Fill-12"></path>
            <path d="M216.606981,90 L215,89.0260204 C215,89.0260204 222.631239,79 239.700785,79 C248.435994,79 252.954711,82.4068936 259.079711,82.4068936 C259.079711,82.4068936 261.589877,82.6985448 264,81.2382538 C264,81.2382538 261.088264,85.3274756 250.545289,85.3274756 C242.814006,85.3274756 237.291362,80.9466026 231.868761,80.9466026 C224.439006,80.9466026 218.916362,87.3717474 216.606981,90" id="Fill-13"></path>
            <path d="M208,78.0210541 C207.699285,78.836281 204.436879,77.8683768 202.229071,78.530926 C199.761811,79.2708792 186.721276,80.8750579 181,67.1156209 C181,67.1156209 186.420561,73.0274352 190.636164,73.4343385 C194.851767,73.8426619 199.468789,74.8616955 203.382978,77.1042792 L204.286521,77.3073757 C204.286521,77.3073757 204.16134,76.8997623 203.784397,76.6959556 C203.268286,76.4168754 199.212132,75.0825451 197.260284,68.5422678 C196.256734,65.1791023 196.457445,62.732712 196.056025,61 C196.056025,61 200.472337,65.9943291 202.278724,69.1536879 C204.085812,72.3137568 204.286521,75.8807289 208,78.0210541" id="Fill-14"></path>
            <path d="M194.979367,69.8976186 C194.66264,70.2164493 193.860308,69.7020965 193.567994,69.5556251 C193.276361,69.4084726 191.173884,68.4451682 187.582041,67.160308 C184.028857,65.8890732 177.410125,60.266618 178.042225,50.6356174 C178.042225,50.6356174 178.967314,54.2537999 181.692395,56.6491169 C184.418154,59.044434 185.392075,59.338058 187.046249,61.2932799 C188.701101,63.2491829 192.448935,67.6978237 192.594752,67.6487729 C192.740569,67.6004033 192.789401,67.3558302 192.497767,67.1112571 C192.205455,66.8666842 191.232211,64.4223162 190.599434,63.5911765 C189.966657,62.7600369 188.068324,57.0401612 190.842914,50 C190.842914,50 193.811476,55.1333091 193.616826,60.3156689 C193.422178,65.4980288 193.178698,64.2758448 194.444253,68.5780142 C194.444253,68.5780142 195.125862,69.7511474 194.979367,69.8976186" id="Fill-15"></path>
            <path d="M186.307177,57.9814418 C186.137787,58.1572305 185.415098,57.0520784 184.85199,56.0252815 C184.288882,54.9984847 180.346471,50.5983162 179.830452,49.7180099 C179.31378,48.8377038 174.902439,43.2635665 178.234653,35.000816 C178.234653,35.000816 178.562968,34.9027014 178.562968,36.8581804 C178.562968,38.8143407 180.299382,43.1661333 181.707479,45.0241789 C183.115577,46.8822247 184.38306,49.8645006 184.664287,53.0430057 C184.664287,53.0430057 184.85199,53.6296494 185.086781,53.6787067 C185.321574,53.7270826 185.321574,53.0913816 185.321574,53.0913816 C185.321574,53.0913816 185.133872,50.1581631 185.133872,48.1529455 C185.133872,46.1484091 185.97886,42.7259801 187.808798,40.7698197 C187.808798,40.7698197 188.653787,39.7920802 189.169806,38.6187928 C189.169806,38.6187928 189.498776,37.8366012 189.96836,37.4455055 C189.96836,37.4455055 190.343112,43.0680187 188.513174,48.3001174 C186.682582,53.5315347 186.072385,54.411841 186.354266,57.2476262 C186.354266,57.2476262 186.4007,57.8833272 186.307177,57.9814418" id="Fill-16"></path>
            <path d="M182.251053,42.9842638 C182.06539,42.9842638 181.925657,42.2911202 181.833149,41.7469507 C181.739994,41.2020915 181.183003,38.0350115 180.811677,37.341868 C180.440349,36.6487244 179.047551,33.4816444 179.000973,29.7690155 C178.955043,26.0570764 180.532859,21.0091977 184.061757,17 C184.061757,17 183.922024,18.1876551 182.993707,20.8112553 C182.06539,23.4341658 182.622381,25.9087919 182.714889,26.3543349 C182.808044,26.7998781 183.132792,29.8648832 183.132792,31.3035872 C183.132792,32.4422739 182.854621,36.3521554 182.622381,37.1439254 C182.622381,37.1439254 182.529226,37.6880949 182.714889,37.6880949 C182.900552,37.6880949 183.086215,37.2425519 183.086215,37.2425519 C183.086215,37.2425519 183.271879,34.1740982 185.407332,31.4029032 C187.543431,28.6310186 191.396432,26.9481625 192,25.7108494 C192,25.7108494 191.721182,30.0662741 187.218035,35.1645005 C183.208481,39.7040737 184.386507,37.391526 183.086215,41.1034651 C183.086215,41.1034651 182.529226,42.4890626 182.529226,42.7863212 C182.529226,43.0828902 182.251053,42.9842638 182.251053,42.9842638" id="Fill-17"></path>
            <path d="M186.004567,29 C186.004567,29 185.900998,28.3812529 186.6803,26.9892517 C187.4596,25.5965318 186.628153,23.1215435 187.668187,19.5111076 C188.707497,15.9013904 190.630401,9.71248244 197.958441,6 C197.958441,6 197.231286,6.67048899 196.866986,7.18575223 C196.503408,7.7017341 194.528356,11.4149352 193.956918,13.9934073 C193.384754,16.5718795 190.89041,20.9038275 189.954668,21.8833308 C189.018928,22.8635526 189.434652,22.9663177 189.434652,22.9663177 C189.434652,22.9663177 189.902521,22.8635526 190.370392,22.1413216 C190.838263,21.4190908 193.229038,18.7378534 195.879822,18.1191063 C198.530606,17.5003593 202.739991,16.2621466 203,16.0041556 C203,16.0041556 198.426312,20.6458367 194.216202,23.0180597 C190.006815,25.3902828 189.538944,24.6680518 187.043877,27.8659898 C187.043877,27.8659898 186.212429,29 186.004567,29" id="Fill-18"></path>
            <path d="M195,12.9488765 C195,12.9488765 195,12.581596 195.7283,11.9385351 C196.457279,11.2961142 197.185579,9.36757176 198.448598,7.57659958 C199.711618,5.78562734 202.577441,1.10248131 210.00868,0 C210.00868,0 207.774367,1.56126196 207.434584,2.06611266 C207.0948,2.57160321 204.908544,5.28077664 203.937251,6.19897784 C202.965957,7.11717904 200.196926,9.04572152 199.274367,9.45907197 C199.274367,9.45907197 198.788382,9.82635245 198.885849,9.96456252 C198.982641,10.1021327 199.468626,9.82635245 199.468626,9.82635245 C199.468626,9.82635245 202.042721,7.94388006 205.151538,7.85237986 C208.260352,7.76023982 211.514692,7.89781002 212,7.94388006 C212,7.94388006 209.08612,9.82635245 202.14019,11.020334 C195.194259,12.2143155 196.505335,12.2603855 195.437251,12.9028063 C195.437251,12.9028063 195.194259,13.0864467 195,12.9488765" id="Fill-19"></path>
            <path d="M209,5.89161298 C209,5.89161298 209.152488,5.49932314 210.323459,5.15555696 C211.493721,4.81247421 211.392299,3.73333544 214.954859,1.91882406 C218.518127,0.104312704 222.233176,-0.729474047 226,0.790478208 C226,0.790478208 224.421919,0.98730656 224.1673,1.08503731 C223.912678,1.18276805 221.215403,1.86961698 220.451542,2.26190682 C219.68839,2.65419666 215.769077,4.32177019 214.191706,4.61632928 C212.613627,4.91088838 213.377488,5.00861912 213.377488,5.00861912 C213.377488,5.00861912 213.733531,5.15555696 214.039217,5.15555696 C214.344194,5.15555696 217.856397,4.81247421 220.146565,5.59705389 C222.43673,6.38163355 222.385666,6.67619266 223.302015,6.97006832 C224.218366,7.26462741 225.287204,7.46077234 225.439692,7.80385509 C225.439692,7.80385509 223.149527,8 221.775001,8 C220.401184,8 216.787559,7.65691725 215.05699,6.87233757 C213.326421,6.08707446 211.341232,5.74399171 210.679503,5.89161298 C210.017773,6.0385508 209.203555,6.0385508 209,5.89161298" id="Fill-20"></path>
            <path d="M222,4.21336179 C222,4.21336179 222.138756,4.00297856 223.060582,3.79259535 C223.982409,3.58221211 224.213026,2.95106245 226.3798,2.42473787 C228.54593,1.89841328 231.911399,1.42560082 235,3.8453744 C235,3.8453744 233.110095,3.79259535 232.695113,3.79259535 C232.28013,3.79259535 228.684687,4.52930315 227.854722,4.52930315 C227.025398,4.52930315 225.365469,4.10780365 225.134852,4.42374501 C224.904877,4.73968637 226.656027,5.16045282 226.932895,5.26527791 C227.209764,5.37083603 228.45407,5.47566114 230.021495,7.21150598 C231.588921,8.94808389 232.695113,9.89444187 232.879478,10 C232.879478,10 228.269704,8.78974669 227.117261,8.05303888 C225.964817,7.31706411 223.982409,5.05489469 223.65993,4.89729053 C223.337452,4.73968637 222,4.21336179 222,4.21336179" id="Fill-21"></path>
            <path d="M233,6.00151922 C233,6.00151922 235.893361,5.89863912 238.004834,7.38611376 C240.116948,8.87287394 241.816366,10.8211656 242,12 C242,12 240.806057,10.8726057 240.025451,10.61612 C239.244845,10.3596342 237.041234,8.97503958 236.581829,8.66782821 C236.122422,8.35990239 233.459405,6.46305074 233,6.00151922" id="Fill-22"></path>
            <path d="M248,78.3797896 C248,78.3797896 248.436809,77.9168201 249.894874,76.5774385 C251.352939,75.2380569 251.742342,73.280665 253.34601,70.2415751 C254.949678,67.2024853 256.310221,65.0907702 259.566316,62 C259.566316,62 258.983226,64.3177186 258.934465,65.0390898 C258.885706,65.7604609 258.351375,69.7778877 256.504585,72.0956065 C254.657794,74.4133252 254.56095,74.9286929 252.422276,76.3197546 C252.422276,76.3197546 251.596062,76.9377651 251.644822,77.1437686 C251.693581,77.3497721 253.102885,77.0920883 253.102885,77.0920883 C253.102885,77.0920883 254.657794,76.4740779 255.14404,76.1654314 C255.630287,75.8560674 257.817045,74.671009 258.691342,74.3106823 C259.566316,73.9503557 260.295686,73.5900289 262.239321,72.9713008 C264.182955,72.3532902 271.230153,70.4475786 274,65.7087806 C274,65.7087806 273.173786,68.4901866 272.153887,69.7778877 C271.133309,71.0655891 265.349812,79.152841 257.330797,78.9978 C257.330797,78.9978 254.172224,78.7408341 252.519796,78.4314699 C250.866691,78.1228235 250.284277,78.1228235 250.041154,78.1745038 C249.798032,78.2254664 248.243123,78.5341127 248,78.3797896" id="Fill-23"></path>
            <path d="M266.791357,50.5913351 C266.791357,50.5913351 263.653864,55.3721518 262.945124,62.2724342 C262.236385,69.1720298 263.451467,67.1020138 262.28716,70.158275 C262.28716,70.158275 261.882368,70.9467218 262.033988,70.9954846 C262.186315,71.0449342 262.793503,70.7001605 265.019861,69.3691415 C267.246925,68.0388094 269.423212,68.4330328 274.179875,63.9969898 C278.936539,59.5616335 279.89845,50.7389971 280,50 C280,50 279.29126,50.6902343 278.936539,51.8729044 C278.583226,53.0555744 277.823711,53.99237 277.671386,54.1400321 C277.519765,54.2876942 272.357605,59.8081948 271.751122,60.3006307 C271.143227,60.7937533 268.107284,64.391213 267.449321,65.4262211 C266.791357,66.4612291 264.86824,68.3341334 264.513518,68.1864715 C264.513518,68.1864715 264.564293,67.7427985 264.71662,67.3980247 C264.86824,67.0525642 266.285014,65.1796598 266.892907,63.0114313 C267.500096,60.8432029 267.651716,59.5121839 267.702493,58.1324021 C267.752563,56.7519335 266.842132,51.6757927 266.791357,50.5913351" id="Fill-24"></path>
            <path d="M271.201699,57 C271.201699,57 270.904096,56.2851968 271.15387,55.7705111 C271.296692,55.4751321 271.440179,53.1148424 270.581914,51.1965929 C269.724313,49.2783435 267.864961,43.9670061 268.007783,40.4258861 C268.150606,36.884766 268.532573,36.3933816 268.532573,36.3933816 C268.532573,36.3933816 269.485832,39.2950852 269.771479,39.7864695 C270.057124,40.2785393 272.917565,45.4918739 272.679085,48.3442334 C272.440603,51.1965929 272.298445,52.0820442 272.440603,52.130703 C272.58409,52.180047 272.917565,51.7866654 272.965394,51.4426278 C273.013223,51.0979048 273.490184,49.1309967 274.395614,46.8193656 C275.301044,44.5077345 278.971922,39.3930879 279.782359,36 C279.782359,36 280.974098,41.9014098 277.780183,47.409438 C274.586266,52.9181516 274.252792,51.6886626 272.917565,54.1962992 C271.583002,56.7046211 271.39235,57 271.201699,57" id="Fill-25"></path>
            <path d="M274.347177,41 C274.103763,40.9499048 274.250218,38.6208283 273.666431,37.8609328 C273.082644,37.1017428 268.070616,30.9245043 267,24.747266 C267,24.747266 270.16303,28.0888309 270.697998,28.4430255 C271.233646,28.7979257 273.374199,31.0254005 274.006804,32.9494814 C274.639411,34.8735625 274.493633,36.4942497 274.737047,36.5443449 C274.980461,36.5951457 274.980461,34.4177662 274.980461,34.4177662 C274.980461,34.4177662 275.028602,30.1646088 275.368975,28.1396317 C275.710027,26.1139491 276.585368,22.7222889 276.196855,21 C276.196855,21 278.093994,24.1397728 277.996357,28.595428 C277.899398,33.0510831 276.099218,36.5951457 275.855804,37.1017428 C275.612389,37.6076343 274.931643,39.7850137 274.931643,40.24081 C274.931643,40.6966062 274.347177,41 274.347177,41" id="Fill-26"></path>
            <path d="M268.289841,11 C268.289841,11 274.923411,15.0788321 273.890853,28.7426711 C273.890853,28.7426711 273.890853,29.3543892 273.497824,28.6915169 C273.104794,28.0286445 271.679892,26.1423356 271.041048,25.7345234 C270.402204,25.3267113 264.506077,21.6045372 262,15.8944565 C262,15.8944565 262.39303,15.7921481 262.982574,16.3534227 C263.572119,16.9139868 265.39005,17.8823631 265.685164,18.0358256 C265.980279,18.1885775 268.044027,18.7491416 269.566845,20.4826985 C271.090347,22.2162554 271.630591,23.490846 272.07292,24.5110869 C272.07292,24.5110869 272.515251,24.8677449 272.22082,23.8482146 C271.925706,22.8279737 271.876405,22.1651013 271.090347,20.8905107 C270.304288,19.61592 269.616144,17.321799 269.51823,15.740994 C269.41963,14.1608994 268.9773,11.8156244 268.289841,11" id="Fill-27"></path>
            <path d="M265.985589,14 C265.985589,14 266.130383,13.131349 265.502043,11.925188 C264.873704,10.719027 265.363983,9.37772756 263.375927,6.18415744 C262.264716,4.39911986 258.398375,3 258.398375,3 C258.398375,3 259.509585,4.54367092 260.234231,5.41232198 C260.959548,6.28030071 261.200646,6.90758511 261.442419,7.34191063 C261.684192,7.77623617 263.0264,9.0624045 263.52072,9.80264043 C263.6177,9.94719143 263.810309,10.3331093 263.810309,10.5744759 C263.810309,10.8158426 263.278949,10.4299249 263.134154,10.2853737 C262.98936,10.1401503 260.620797,8.35511276 259.123019,8.0653383 C257.624568,7.77623617 254.773133,7.48646171 254,7.10054398 C254,7.10054398 257.382795,10.1401503 261.055853,11.0572093 C264.72891,11.9735957 265.985589,14 265.985589,14" id="Fill-28"></path>
            <path d="M259,7 C259,7 255.768901,1.89382393 250,2.00168507 C250,2.00168507 250.322853,2.37770097 250.969201,2.53874363 C251.61555,2.6997863 252.76933,4.0443053 253.36873,4.47425177 C253.969415,4.90419823 255.215164,5.9790644 259,7" id="Fill-29"></path>
            <path d="M68,0 L68,58.5983474 C68,63.7193605 67.1464232,68.2426442 65.4406586,72.1647232 C63.734894,76.0874971 61.3776607,79.3708394 58.3731258,82.0126651 C55.3658128,84.6544907 51.7813457,86.6464592 47.617641,87.9871805 C43.4539363,89.3285968 38.9144912,90 34,90 C29.0438371,90 24.4849451,89.3285968 20.3212403,87.9871805 C16.1575356,86.6464592 12.5730686,84.6544907 9.56714467,82.0126651 C6.55983168,79.3708394 4.21509989,76.0874971 2.52947665,72.1647232 C0.843158884,68.2426442 0,63.7193605 0,58.5983474 L0,0 L18.2800179,0 L18.2800179,58.5983474 C18.2800179,64.4116148 19.6711607,68.6485443 22.453446,71.3098309 C25.2357314,73.9745927 29.0855088,75.3041933 34,75.3041933 C38.9561629,75.3041933 42.8052458,73.9745927 45.5458593,71.3098309 C48.2885567,68.6485443 49.6588634,64.4116148 49.6588634,58.5983474 L49.6588634,0 L68,0" id="Fill-30"></path>
            <polyline id="Fill-31" points="153 88 135.01059 88 99.9894099 30.0991897 99.9894099 88 82 88 82 0 99.9894099 0 135.070742 58.0213724 135.070742 0 153 0 153 88"></polyline>
            <path d="M13.4723031,125 C12.6200905,125 11.8720887,125.146675 11.2275258,125.440785 C10.5837347,125.736415 10.0302597,126.146042 9.56864458,126.673464 C9.10548556,127.200887 8.72955484,127.830146 8.43853659,128.562761 C8.14906222,129.294617 7.9390968,130.10703 7.8125,131 L18.75,131 L18.75,130.383661 C18.7322456,129.615326 18.6187716,128.90095 18.411122,128.240532 C18.2011566,127.579354 17.8846645,127.007853 17.4577864,126.526789 C17.032452,126.044205 16.4874683,125.669538 15.8251508,125.400507 C15.1636054,125.133756 14.3793228,125 13.4723031,125 Z M13.6709044,146 C11.5320717,146 9.617885,145.670232 7.92978908,145.012745 C6.24024848,144.355257 4.807859,143.457442 3.62756428,142.317933 C2.44726958,141.179791 1.54868535,139.844333 0.928922277,138.311561 C0.309159203,136.779472 0,135.140191 0,133.390988 L0,132.451525 C0,130.479745 0.300491187,128.67046 0.903640566,127.025717 C1.50606761,125.381657 2.36275642,123.966318 3.47515169,122.779017 C4.58610228,121.591033 5.93542328,120.665225 7.52239238,119.999545 C9.1100838,119.333864 10.8870269,119 12.856111,119 C14.8425311,119 16.5898584,119.309968 18.10026,119.927856 C19.6106617,120.545062 20.8790813,121.41147 21.9069633,122.5264 C22.9334008,123.640646 23.7055764,124.984297 24.2234903,126.557351 C24.7414042,128.12904 25,129.87756 25,131.801547 L25,134.762631 L7.45882692,134.762631 C7.5772898,135.611971 7.81999422,136.383477 8.18405086,137.071689 C8.54955216,137.761265 9.01545795,138.351161 9.58393528,138.840692 C10.1531349,139.330223 10.8191274,139.710514 11.5833574,139.984297 C12.3468651,140.256714 13.2035539,140.392581 14.1548685,140.392581 C15.4955215,140.392581 16.733603,140.156349 17.87128,139.682522 C19.0089569,139.210742 19.9848309,138.476787 20.798902,137.481338 L24.4141867,141.307465 C23.9735625,141.901457 23.4216989,142.479062 22.7593181,143.039599 C22.0976597,143.601502 21.3168159,144.10264 20.4175094,144.544379 C19.5174805,144.984752 18.504045,145.338416 17.3743137,145.60264 C16.2467495,145.868229 15.0115574,146 13.6709044,146 L13.6709044,146 Z" id="Fill-32"></path>
            <path d="M33.6982897,119.49077 L33.9190741,122.553565 C34.8378445,121.410056 35.946657,120.532787 37.2441143,119.919672 C38.540873,119.307253 39.9857529,119 41.5773566,119 C42.8419757,119 43.9913119,119.176566 45.0246667,119.527613 C46.0594186,119.879354 46.9460494,120.454932 47.684559,121.25504 C48.4230688,122.055148 48.9938941,123.101336 49.3963365,124.390129 C49.7980801,125.681007 50,127.26593 50,129.143508 L50,146 L42.8824994,146 L42.8824994,129.094848 C42.8824994,128.245385 42.788177,127.543292 42.6002309,126.987874 C42.4101886,126.43176 42.1356056,125.991736 41.775783,125.664324 C41.4138643,125.338302 40.969501,125.104735 40.4454874,124.966402 C39.9200766,124.828068 39.3122209,124.758554 38.6226191,124.758554 C37.5717974,124.758554 36.6732889,124.986561 35.9263951,125.444659 C35.1795012,125.902062 34.5758377,126.521434 34.1161031,127.306944 L34.1161031,146 L27,146 L27,119.49077 L33.6982897,119.49077" id="Fill-33"></path>
            <polyline id="Fill-34" points="65.5 137.190927 70.4949233 119 78 119 68.9296028 146 62.0703972 146 53 119 60.5050767 119 65.5 137.190927"></polyline>
            <path d="M82,146 L90,146 L90,118.64 L82,118.64 L82,146 Z M82,111.787737 C82,110.686257 82.3573306,109.778815 83.073393,109.066857 C83.7894552,108.354898 84.7661587,108 86.0007006,108 C86.6088632,108 87.1602733,108.093052 87.6549309,108.279157 C88.1488877,108.465262 88.5678754,108.72855 88.9146962,109.066857 C89.2594149,109.406606 89.5277632,109.80839 89.7169382,110.275095 C89.9054125,110.7418 90,111.244571 90,111.787737 C90,112.346773 89.9054125,112.860364 89.7169382,113.324905 C89.5277632,113.79161 89.2594149,114.193394 88.9146962,114.533143 C88.5678754,114.872893 88.1488877,115.135459 87.6549309,115.321564 C87.1602733,115.506948 86.6088632,115.6 86.0007006,115.6 C85.3918374,115.6 84.8397267,115.506948 84.3457698,115.321564 C83.8511123,115.135459 83.4321246,114.872893 83.0860045,114.533143 C82.7412858,114.193394 82.4729374,113.79161 82.2837626,113.324905 C82.0945875,112.860364 82,112.346773 82,111.787737 L82,111.787737 Z" id="Fill-35"></path>
            <path d="M108.901947,126.130764 C108.543811,126.081409 108.122392,126.03692 107.639778,125.995906 C107.157163,125.955588 106.729485,125.934734 106.353268,125.934734 C104.963839,125.934734 103.841446,126.166911 102.982615,126.633351 C102.125174,127.097706 101.49235,127.771298 101.084145,128.654128 L101.084145,146 L94,146 L94,119.49077 L100.691933,119.49077 L100.887344,122.651579 C101.557024,121.508071 102.383866,120.614119 103.363004,119.969028 C104.342837,119.323936 105.487483,119 106.794854,119 C107.16968,119 107.566759,119.034062 107.98331,119.098015 C108.399166,119.164749 108.739221,119.237738 109,119.319765 L108.901947,126.130764" id="Fill-36"></path>
            <path d="M118.8125,133.514469 C118.8125,134.623809 118.910386,135.66453 119.105462,136.638061 C119.301234,137.613022 119.615717,138.456463 120.047525,139.169815 C120.480026,139.883881 121.043042,140.450702 121.736572,140.870278 C122.429407,141.290569 123.28122,141.5 124.293399,141.5 C125.271561,141.5 126.107406,141.290569 126.800242,140.870278 C127.493772,140.450702 128.060953,139.883881 128.501785,139.169815 C128.941229,138.456463 129.259878,137.613022 129.455649,136.638061 C129.650726,135.66453 129.75,134.623809 129.75,133.514469 L129.75,132.985531 C129.75,131.911216 129.650726,130.889794 129.455649,129.92484 C129.259878,128.959886 128.941229,128.110726 128.501785,127.38022 C128.060953,126.649714 127.489606,126.070027 126.78844,125.642588 C126.08658,125.213719 125.238932,125 124.244803,125 C123.265253,125 122.429407,125.213719 121.736572,125.642588 C121.043042,126.070027 120.480026,126.649714 120.047525,127.38022 C119.615717,128.110726 119.301234,128.959886 119.105462,129.92484 C118.910386,130.889794 118.8125,131.911216 118.8125,132.985531 L118.8125,133.514469 Z M111,132.259672 C111,130.367774 111.275425,128.610378 111.828351,126.989531 C112.381969,125.369367 113.186099,123.970414 114.243509,122.790624 C115.300227,121.611516 116.604689,120.685708 118.158971,120.011834 C119.711177,119.337961 121.478603,119 123.464015,119 C125.462575,119 127.243841,119.337961 128.804351,120.011834 C130.366246,120.685708 131.679012,121.611516 132.743343,122.790624 C133.809057,123.970414 134.617339,125.369367 135.170957,126.989531 C135.722499,128.610378 136,130.367774 136,132.259672 L136,132.764907 C136,134.674556 135.722499,136.434001 135.170957,138.047337 C134.617339,139.658625 133.809057,141.054165 132.743343,142.233955 C131.679012,143.413063 130.373858,144.334775 128.828572,145.001138 C127.283978,145.666818 125.512401,146 123.512456,146 C121.512512,146 119.735398,145.666818 118.183192,145.001138 C116.629602,144.334775 115.320296,143.413063 114.255965,142.233955 C113.190251,141.054165 112.381969,139.658625 111.828351,138.047337 C111.275425,136.434001 111,134.674556 111,132.764907 L111,132.259672 L111,132.259672 Z" id="Fill-37"></path>
            <path d="M146.69829,119.49077 L146.919773,122.553565 C147.838543,121.410056 148.947356,120.532787 150.244114,119.919672 C151.540873,119.307253 152.985752,119 154.577357,119 C155.841975,119 156.991311,119.176566 158.025365,119.527613 C159.060117,119.879354 159.946049,120.454932 160.684559,121.25504 C161.423069,122.055148 161.993894,123.101336 162.397035,124.390129 C162.79808,125.681007 163,127.26593 163,129.143508 L163,146 L155.883197,146 L155.883197,129.094848 C155.883197,128.245385 155.788876,127.543292 155.600231,126.987874 C155.410189,126.43176 155.136305,125.991736 154.775783,125.664324 C154.413864,125.338302 153.9702,125.104735 153.445487,124.966402 C152.920077,124.828068 152.31292,124.758554 151.623318,124.758554 C150.571797,124.758554 149.673289,124.986561 148.926395,125.444659 C148.179501,125.902062 147.576536,126.521434 147.116103,127.306944 L147.116103,146 L140,146 L140,119.49077 L146.69829,119.49077" id="Fill-38"></path>
            <path d="M175.638617,119.49077 L175.860368,122.454854 C176.74181,121.377385 177.8165,120.532787 179.082356,119.919672 C180.346821,119.307253 181.814269,119 183.479137,119 C185.063368,119 186.464081,119.319765 187.681277,119.956515 C188.897777,120.59396 189.841086,121.622075 190.51051,123.042944 C191.377353,121.786128 192.466642,120.797636 193.781157,120.07886 C195.096369,119.360083 196.659746,119 198.473375,119 C199.76356,119 200.936267,119.180737 201.988714,119.53943 C203.043245,119.899513 203.940675,120.479262 204.683783,121.27937 C205.426891,122.079478 205.998993,123.120105 206.399396,124.402641 C206.799103,125.685178 207,127.256894 207,129.119178 L207,146 L199.894246,146 L199.894246,129.119178 C199.894246,128.237738 199.800403,127.51062 199.61341,126.938519 C199.424331,126.367112 199.15948,125.922917 198.816774,125.603151 C198.473375,125.285472 198.056288,125.064416 197.567602,124.942071 C197.076832,124.819727 196.521412,124.758554 195.90065,124.758554 C194.807189,124.758554 193.891686,125.031745 193.156919,125.578821 C192.421458,126.126593 191.866038,126.865529 191.491356,127.795628 C191.491356,127.879045 191.495527,127.968719 191.503174,128.066038 C191.511516,128.164053 191.515687,128.253727 191.515687,128.335058 L191.515687,146 L184.434264,146 L184.434264,129.167838 C184.434264,128.286398 184.34459,127.55928 184.165242,126.987874 C183.985896,126.415772 183.723827,125.967406 183.381816,125.639994 C183.037721,125.313972 182.617855,125.084576 182.119436,124.953889 C181.621019,124.823897 181.061428,124.758554 180.442057,124.758554 C179.395865,124.758554 178.514425,124.978914 177.795646,125.420329 C177.076173,125.860354 176.505461,126.472774 176.080032,127.256894 L176.080032,146 L169,146 L169,119.49077 L175.638617,119.49077" id="Fill-39"></path>
            <path d="M223.472303,125 C222.620091,125 221.871317,125.146675 221.227525,125.440785 C220.583734,125.736415 220.029488,126.146042 219.568645,126.673464 C219.105486,127.200887 218.729555,127.830146 218.438536,128.562761 C218.149063,129.294617 217.939097,130.10703 217.8125,131 L228.75,131 L228.75,130.383661 C228.732245,129.615326 228.618772,128.90095 228.411122,128.240532 C228.201156,127.579354 227.884664,127.007853 227.457786,126.526789 C227.032452,126.044205 226.487469,125.669538 225.825152,125.400507 C225.162833,125.133756 224.378552,125 223.472303,125 Z M223.6713,146 C221.532405,146 219.618162,145.670232 217.930019,145.012745 C216.240428,144.355257 214.807998,143.457442 213.627669,142.317933 C212.447341,141.179791 211.548008,139.844333 210.928948,138.311561 C210.309169,136.779472 210,135.140191 210,133.390988 L210,132.451525 C210,130.479745 210.3005,128.67046 210.902944,127.025717 C211.506111,125.381657 212.362825,123.966318 213.475252,122.779017 C214.586234,121.591033 215.935595,120.665225 217.521888,119.999545 C219.110347,119.333864 220.887342,119 222.856483,119 C224.842238,119 226.590338,119.309968 228.100783,119.927856 C229.610506,120.545062 230.879684,121.41147 231.907597,122.5264 C232.934064,123.640646 233.705539,124.984297 234.224191,126.557351 C234.742119,128.12904 235,129.87756 235,131.801547 L235,134.762631 L217.45832,134.762631 C217.577509,135.611971 217.82022,136.383477 218.184288,137.071689 C218.549798,137.761265 219.015719,138.351161 219.584213,138.840692 C220.153428,139.330223 220.819441,139.710514 221.58297,139.984297 C222.347222,140.256714 223.203936,140.392581 224.155278,140.392581 C225.495969,140.392581 226.734086,140.156349 227.871797,139.682522 C229.009506,139.210742 229.984686,138.476787 230.799503,137.481338 L234.41417,141.307465 C233.974255,141.901457 233.422375,142.479062 232.759975,143.039599 C232.098298,143.601502 231.317431,144.10264 230.4181,144.544379 C229.518044,144.984752 228.503858,145.338416 227.374816,145.60264 C226.247219,145.868229 225.011991,146 223.6713,146 L223.6713,146 Z" id="Fill-40"></path>
            <path d="M245.69829,119.49077 L245.919075,122.553565 C246.837845,121.410056 247.946657,120.532787 249.243415,119.919672 C250.540873,119.307253 251.985055,119 253.577357,119 C254.841278,119 255.991311,119.176566 257.024666,119.527613 C258.059419,119.879354 258.946049,120.454932 259.684559,121.25504 C260.423069,122.055148 260.993894,123.101336 261.396336,124.390129 C261.79808,125.681007 262,127.26593 262,129.143508 L262,146 L254.8825,146 L254.8825,129.094848 C254.8825,128.245385 254.788177,127.543292 254.600231,126.987874 C254.410189,126.43176 254.135605,125.991736 253.775085,125.664324 C253.413166,125.338302 252.969501,125.104735 252.445487,124.966402 C251.920077,124.828068 251.31222,124.758554 250.622619,124.758554 C249.571099,124.758554 248.673289,124.986561 247.926395,125.444659 C247.179501,125.902062 246.575838,126.521434 246.116103,127.306944 L246.116103,146 L239,146 L239,119.49077 L245.69829,119.49077" id="Fill-41"></path>
            <path d="M275.427588,113 L275.427588,119.417123 L279.743845,119.417123 L279.743845,124.53111 L275.427588,124.53111 L275.427588,137.556994 C275.427588,138.103845 275.482527,138.554878 275.591077,138.907354 C275.699629,139.261884 275.863782,139.539074 276.080884,139.739609 C276.29865,139.941513 276.567382,140.077713 276.885755,140.150261 C277.204792,140.222125 277.581413,140.2584 278.017606,140.2584 C278.422029,140.2584 278.790707,140.242658 279.125629,140.21049 C279.459889,140.178323 279.751788,140.137942 280,140.090032 L280,145.373071 C279.440032,145.549652 278.829759,145.698171 278.16852,145.817944 C277.507944,145.939771 276.757347,146 275.918056,146 C274.813343,146 273.819169,145.858325 272.931559,145.577713 C272.045274,145.296416 271.287397,144.850174 270.65793,144.238987 C270.027801,143.6278 269.541303,142.831819 269.199761,141.851045 C268.857559,140.869587 268.686789,139.687593 268.686789,138.30438 L268.686789,124.53111 L265,124.53111 L265,119.417123 L268.686789,119.417123 L268.686789,113 L275.427588,113" id="Fill-42"></path>
        </g>
    </g>
</svg>